<?xml version="1.0" encoding="UTF-8" standalone="no"?>
<svg
   id="Livello_1"
   data-name="Livello 1"
   viewBox="0 0 700 307.33"
   version="1.1"
   sodipodi:docname="LogoPoliWhite.svg"
   inkscape:version="1.3 (0e150ed6c4, 2023-07-21)"
   xmlns:inkscape="http://www.inkscape.org/namespaces/inkscape"
   xmlns:sodipodi="http://sodipodi.sourceforge.net/DTD/sodipodi-0.dtd"
   xmlns="http://www.w3.org/2000/svg"
   xmlns:svg="http://www.w3.org/2000/svg">
  <sodipodi:namedview
     id="namedview23"
     pagecolor="#ffffff"
     bordercolor="#666666"
     borderopacity="1.0"
     inkscape:showpageshadow="2"
     inkscape:pageopacity="0.0"
     inkscape:pagecheckerboard="0"
     inkscape:deskcolor="#d1d1d1"
     inkscape:zoom="1.0214286"
     inkscape:cx="350"
     inkscape:cy="153.21678"
     inkscape:window-width="1920"
     inkscape:window-height="994"
     inkscape:window-x="0"
     inkscape:window-y="1080"
     inkscape:window-maximized="1"
     inkscape:current-layer="Livello_1" />
  <defs
     id="defs1">
    <style
       id="style1">.cls-1{fill:#00284b;}</style>
  </defs>
  <path
     class="cls-1"
     d="M442.43,239.89H461.2c9.76,0,16.08,6.8,16.08,15.68S471,271.38,461.2,271.38h-8.81V287h-10Zm16.82,22.81c4.44,0,7.4-2.56,7.4-7.13s-3-7-7.4-7h-6.86V262.7Z"
     transform="translate(-72.37 -143.69)"
     id="path1"
     style="fill:#ffffff;fill-opacity:1" />
  <path
     class="cls-1"
     d="M480.11,270.44c0-9.83,7.27-17.43,17.9-17.43s18,7.6,18,17.43S508.64,288,498,288,480.11,280.33,480.11,270.44Zm26.11,0c0-5.32-3.64-8.61-8.21-8.61s-8.14,3.29-8.14,8.61,3.63,8.68,8.14,8.68S506.22,275.89,506.22,270.44Z"
     transform="translate(-72.37 -143.69)"
     id="path2"
     style="fill:#ffffff;fill-opacity:1" />
  <path
     class="cls-1"
     d="M558.15,277.3V261.89h-5.58v-7.8h5.92v-9l9.08-3.37v12.32h7.33v7.8h-7.33v13.19c0,3,1.48,4.44,4.64,4.44a10.31,10.31,0,0,0,2.69-.4v8.14a22.71,22.71,0,0,1-5.65.74C563.27,288,558.15,285,558.15,277.3Z"
     transform="translate(-72.37 -143.69)"
     id="path3"
     style="fill:#ffffff;fill-opacity:1" />
  <path
     class="cls-1"
     d="M578.94,270.3c0-10.36,7.47-17.29,16.89-17.29,10.43,0,16.35,7.27,16.35,17.43,0,.81-.07,2.22-.13,2.76H588.77c.2,4.5,4.37,7,8.47,7a21.62,21.62,0,0,0,12.52-4v8.14c-3,1.95-6.93,3.7-13.53,3.7C586.75,288,578.94,281.67,578.94,270.3Zm23.75-3.43c-.2-3.09-2.35-6.05-6.86-6.05a6.68,6.68,0,0,0-6.86,6.05Z"
     transform="translate(-72.37 -143.69)"
     id="path4"
     style="fill:#ffffff;fill-opacity:1" />
  <path
     class="cls-1"
     d="M625.84,270.44c0,5.78,4,8.61,8.68,8.61a16.07,16.07,0,0,0,9.62-3.1v9.76A23.09,23.09,0,0,1,634.05,288c-10.37,0-18-7.13-18-17.56s7.6-17.43,18-17.43a23.09,23.09,0,0,1,10.09,2.29V265a16.48,16.48,0,0,0-9.62-3.1C629.87,261.89,625.84,264.85,625.84,270.44Z"
     transform="translate(-72.37 -143.69)"
     id="path5"
     style="fill:#ffffff;fill-opacity:1" />
  <path
     class="cls-1"
     d="M650.93,254.09h9.28v2.62a12.58,12.58,0,0,1,9.22-3.7c6.19,0,12.05,4.24,12.05,12V287h-9.42V267.41c0-3.57-2.36-5.79-5.52-5.79a7.66,7.66,0,0,0-6.19,3.43V287h-9.42Z"
     transform="translate(-72.37 -143.69)"
     id="path6"
     style="fill:#ffffff;fill-opacity:1" />
  <path
     class="cls-1"
     d="M713.43,270.44c0,5.78,4,8.61,8.68,8.61a16,16,0,0,0,9.62-3.1v9.76A23.05,23.05,0,0,1,721.64,288c-10.36,0-18-7.13-18-17.56s7.6-17.43,18-17.43a23.05,23.05,0,0,1,10.09,2.29V265a16.44,16.44,0,0,0-9.62-3.1C717.47,261.89,713.43,264.85,713.43,270.44Z"
     transform="translate(-72.37 -143.69)"
     id="path7"
     style="fill:#ffffff;fill-opacity:1" />
  <path
     class="cls-1"
     d="M736.51,270.44c0-9.83,7.27-17.43,17.9-17.43s18,7.6,18,17.43S765,288,754.41,288,736.51,280.33,736.51,270.44Zm26.11,0c0-5.32-3.64-8.61-8.21-8.61s-8.14,3.29-8.14,8.61,3.63,8.68,8.14,8.68S762.62,275.89,762.62,270.44Z"
     transform="translate(-72.37 -143.69)"
     id="path8"
     style="fill:#ffffff;fill-opacity:1" />
  <path
     class="cls-1"
     d="M528.22,310.66h-15v-9.21h40.23v9.21l-15.07.07v37.88l-10.15-.07Z"
     transform="translate(-72.37 -143.69)"
     id="path9"
     style="fill:#ffffff;fill-opacity:1" />
  <path
     class="cls-1"
     d="M548.33,332c0-9.82,7.27-17.42,17.9-17.42s18,7.6,18,17.42-7.33,17.56-18,17.56S548.33,341.88,548.33,332Zm26.11,0c0-5.31-3.64-8.61-8.21-8.61s-8.14,3.3-8.14,8.61,3.63,8.68,8.14,8.68S574.44,337.44,574.44,332Z"
     transform="translate(-72.37 -143.69)"
     id="path10"
     style="fill:#ffffff;fill-opacity:1" />
  <path
     class="cls-1"
     d="M590.11,315.64h9.28v4.78a9.25,9.25,0,0,1,8.82-5.85,21.24,21.24,0,0,1,2.42.2v9.55a13.72,13.72,0,0,0-3.43-.34,7.9,7.9,0,0,0-7.67,5.52v19h-9.42Z"
     transform="translate(-72.37 -143.69)"
     id="path11"
     style="fill:#ffffff;fill-opacity:1" />
  <path
     class="cls-1"
     d="M633.51,315.64h9.28v2.62a12.58,12.58,0,0,1,9.22-3.69c6.19,0,12,4.23,12,12v21.93h-9.42V329c0-3.56-2.35-5.78-5.51-5.78a7.62,7.62,0,0,0-6.19,3.43v21.93h-9.42Z"
     transform="translate(-72.37 -143.69)"
     id="path12"
     style="fill:#ffffff;fill-opacity:1" />
  <path
     class="cls-1"
     d="M669.3,332c0-9.82,7.26-17.42,17.89-17.42s18,7.6,18,17.42-7.34,17.56-18,17.56S669.3,341.88,669.3,332Zm26.1,0c0-5.31-3.63-8.61-8.21-8.61s-8.14,3.3-8.14,8.61,3.64,8.68,8.14,8.68S695.4,337.44,695.4,332Z"
     transform="translate(-72.37 -143.69)"
     id="path13"
     style="fill:#ffffff;fill-opacity:1" />
  <path
     class="cls-1"
     d="M173.74,324.24l1-1,1.33,2.63-1.18-3.06h-1l-1.19,1.43Zm.15.37.71-.11.34.85.5.24-.73-1.62Zm3-5.15c.27,0,.4.3.5.81.14,1.29.93,1.78,1.18.29.09-.47.24-.65.5-.54v-.28l-2.18-.56Zm2.18-9.87-2.18-.95v9.68l2.18.6Zm-.52-2.2-.73.57.63-.1.3.76.45.22Zm136.18,8.68H316v-.18H314.7l-.83.25,0,.18Zm-137.17,8.78,1-1,1.25,2.49-1.12-2.89h-1l-1.12,1.36Zm.14.34.67-.11.32.81.48.23-.69-1.53Zm4.86-14.08-2.18-.95v9.12l2.18.6Zm-3.81-4.76h-.91l-1.06,1.29h.9l.94-.9,1.19,2.35Zm136,12.82H316V319h-1.27l-.81.22,0,.18Zm0,1.55H316v-.19h-1.27l-.81.19,0,.18Zm-141.94-2.31c.34,0,.53.34.64.9.18,1.36,1.19,1.95,1.52.37.11-.51.33-.67.63-.56v-.28l-2.79-.73Zm141.11-.79,0,.18.8-.18H316v-.18A6.41,6.41,0,0,0,313.87,317.62Zm-153-19.81-1.53,1.86h1.3l1.37-1.3,1.72,3.4-1.53-4ZM165,323l.81-.13.38,1,.56.28L166,322.3Zm1.27-22.69h-1.08L164,301.86H165l1.12-1.06,1.4,2.78Zm147.58,34.32H316v-.18h-2.06Zm-149-12,1.2-1.14,1.49,3L166.23,321h-1.16l-1.33,1.63Zm-2.59-2.38H161l-1.53,1.86h1.3l1.36-1.31,1.72,3.41Zm-2.09-6.48,2.76.75V302.58l-2.76-1.2Zm.73,8.81.92-.15.44,1.11.65.31-1-2.1Zm5.15-21-.87.68.76-.12.35.9.53.26Zm-3.21-.16-.94-2.09-1.06.82.92-.14.44,1.1Zm-4.66,34.82.78,0V336c-.47,0-1.58,0-2.06,0v.18Zm14.56-19,2.79.76v-9.89l-2.79-1.22Zm-15.84,17.46H159v-.18h-2.06Zm9.75-30.46-2.41-1.05v11.72l2.41.66Zm-2.41,12.05c.31,0,.45.36.55,1,.16,1.56,1,2.12,1.31.32.1-.56.26-.79.55-.68v-.33l-2.41-.62Zm-7.34,16.86H159v-.18h-2.06Zm12.14-9.66,1.2-1.15,1.52,3-1.35-3.5h-1.17l-1.35,1.65ZM168,317.2c.31,0,.45.34.56.93.16,1.47,1,2,1.3.32.1-.54.27-.75.56-.64v-.31l-2.42-.63Zm1.83-13.88-.79.61.69-.1.32.82.48.23Zm.22-1.12h-1l-1.14,1.38h1l1-1,1.28,2.53Zm3.93,4,.73-.12.36.88.51.25-.75-1.67Zm-4.73,17.62.81-.13.39,1,.57.27-.83-1.85Zm5.82-19.49H174l-1.23,1.49h1l1.09-1,1.38,2.72ZM314.7,323.81H316v-.18h-1.26l-.81.12,0,.18Zm0,1.55H316v-.18h-1.26l-.81.1,0,.18ZM160.19,315.21c.35.05.51.38.63,1,.18,1.64,1.18,2.27,1.5.36.11-.59.3-.83.63-.7v-.34l-2.76-.72ZM316,332.93h-2.06v.18H316ZM170.4,305.82,168,304.77v11.12l2.42.66Zm10,14.53c.27,0,.41.29.5.77.15,1.21.94,1.69,1.19.29.08-.44.24-.6.49-.51v-.25l-2.18-.56Zm134.34,1.91H316v-.18a9.53,9.53,0,0,0-2.07.14l0,.17ZM139.77,345.69a19.24,19.24,0,0,1,.17-3.32V327.21c-.05-8.92-5.72-10.45-5.88-.45,0,.39-.09,17.69.13,17.49v2.07Zm174.09-43.36.06.17.79-.37H316V302H314.7ZM316,300.4H314.7l-.84.42.06.16.79-.4H316ZM314.72,299H316v-.18H314.7l-.85.43.07.17ZM182,309.15l-.73.58.63-.1.31.76.44.21Zm131.94-11.24.8-.43H316v-.18H314.7l-.85.45Zm.79,5.77H316v-.18H314.7l-.84.42.06.16Zm0,6.19H316v-.18H314.7l-.84.32.05.17Zm-.84-1.45,0,.17.8-.27H316v-.18H314.7Zm.84-3.19H316v-.18H314.7l-.84.36.06.17Zm0,1.54H316v-.18H314.7l-.84.33.05.17Zm-.85-10.61.06.16.79-.39H316v-.18H314.7ZM155.5,343.92V317.24s0-.57,0-.57l-2.62-.51v-2.92l-2.73-.68V302.41h-.31v1.36h-.45a3.52,3.52,0,0,0-.83-2.06H152l-5.76-4.09-5.77,4.09h3.4a3.52,3.52,0,0,0-.83,2.06h-.6v.46h1A2.81,2.81,0,1,1,149,304v.23h.85v8.25l-1.35-.34v-1h-2.1v.5l-.46-.11v-.39H144.4l-11.84-2.95v-5.76h-.32v1.36h-.44a3.52,3.52,0,0,0-.83-2.06h3.4l-5.77-4.09-5.76,4.09h3.4a3.52,3.52,0,0,0-.83,2.06h-.6v.46h1a2.82,2.82,0,1,1,5.59,0h.84v3.86l-1.34-.34V305h-2.11v2.21l-.45-.11V305h-2.1v1.57L119.8,305l-5.45-1.36v.29l4.63,1.15v.42l-4.7-1.14v.14l4.7,1.15v4l-4.7-.91v.57l41.07,8C155.43,317.18,155.12,344.25,155.5,343.92Zm-7.07-42.37a3.09,3.09,0,0,0-4.45,0v-.43h-1.54l3.77-2.62,3.76,2.62h-1.54Zm-17.6,0a3.09,3.09,0,0,0-4.45,0v-.43h-1.54l3.76-2.62,3.77,2.62h-1.54Zm-8.78,8.64-2.23-.43v-4.49l2.23.56Zm4.2.81-4-.76v-3.8l4,1Zm0-3.71-4-1v-.41l4,1Zm2.63,4.22-2-.38v-4.08l2,.49Zm4.16.81-3.91-.76v-3.42l3.91.92Zm0-3.4-3.91-.92v-.4l3.91,1Zm2.27,3.84-1.62-.32v-3.7l1.62.41Zm3.46.66-3.27-.63v-3.13l3.27.8Zm0-3.11-3.27-.79v-.33l3.27.82Zm2.1,3.52-1.68-.32v-3.39l1.68.42Zm3.23.63-3-.59V311l3,.74Zm0-2.85-3-.73v-.29l3,.75Zm1.69,3.18-1.27-.25v-3.09l1.27.32Zm3.09.59-2.88-.55v-2.6l2.88.7Zm0-2.6-2.88-.7v-.26l2.88.72Zm1.14,2.83-.72-.14v-2.83l.72.18Zm2.56.49-2.35-.45v-2.39l2.35.57Zm0-2.42-2.35-.57v-.23l2.35.58Zm-21.3,30.84c.33-.27.11-17.14.17-17.95,0-4.19-1.39-7.78-3.1-8s-3.11,3.13-3.11,7.55c0,2.79,0,18.83.14,21.23l5.9-.67Zm-.36-40.36c-.06-3.67-4.59-3.65-4.63,0C126.29,304.16,131,304.21,130.92,304.16Zm17.58,6.5V305h-2.1v5.64Zm0-6.5c-.06-3.67-4.59-3.65-4.63,0C143.9,304.16,148.55,304.21,148.52,304.16ZM316,294.2H314.7l-.84.43.06.16.79-.41H316ZM122.19,347.68a20.45,20.45,0,0,1,.22-3.92V325.88c-.07-10.52-7.42-12.46-7.63-.58,0,3.05,0,20.59.16,23.21Zm30.63-3.47c.19-5.94.11-10.09.13-16,0-7.74-4.12-8.88-4.23-.32v13.81a26.71,26.71,0,0,1,.09,3ZM127.39,385A30.18,30.18,0,0,1,131,396.91a1.72,1.72,0,0,0,.44-1.17c.77-11.31-4.51-21.55-12.43-25.57-.93,7.15.67,20.57,10.77,26.83a.91.91,0,0,0,1.12,0h-.12c-.73-6.13-3.41-11.72-6.77-16.78a36.12,36.12,0,0,1-2.88-5.28C123,378.55,125.48,381.41,127.39,385Zm187.32-73.57H316v-.18H314.7l-.84.3.05.18ZM147.3,344.84a17.36,17.36,0,0,1,.15-3.07v-14c0-8.23-5.31-9.65-5.46-.41,0,.33-.08,16.37.12,16.14v1.91Zm-3.46-34.18h2.1V305h-2.1Zm172.11-18H314.7l-.85.45.07.16.8-.43H316ZM314.71,313H316v-.18H314.7l-.84.29.05.17Zm-130.85,8.27c.27,0,.41.27.5.73.14,1.13.93,1.6,1.18.29.09-.41.25-.56.5-.46v-.24l-2.18-.57Zm1.63-10.39-.73.57.63-.1.31.76.44.22Zm.21-1h-.92l-1.05,1.29h.89l.95-.9,1.18,2.35Zm-1.15,16.28.87-.83,1.1,2.17-1-2.53h-.84l-1,1.19Zm129.32-11.52,0,.18.79-.23H316v-.18h-1.27ZM184.68,326.39l.59-.09.27.7.42.2-.6-1.34Zm-3.57-.93.95-.9,1.18,2.35-1.05-2.74h-.92l-1.05,1.29Zm1.08-17.34h-.92l-1.05,1.28h.89l.95-.9,1.18,2.35Zm3.85,4.52-2.18-1v8.56l2.18.59Zm5.24.57-.79,1h.67l.71-.67.89,1.76-.79-2.05Zm-10,12.57.63-.1.31.76.44.22-.65-1.45Zm10.1,1.53.47-.07.23.57.34.16-.49-1.09Zm-.5-5.16,1.39.38v-7.2l-1.39-.6Zm1.45-7.07-.49-1.09-.55.43.48-.08.23.57Zm-.25,11h-.69l-.79,1h.67l.71-.68.9,1.77Zm-1.2-3.08c.4,0,.33,1.56.69,1.52.39.15.28-1.34.7-1.17v-.2l-1.39-.36Zm-1.76,2.47h-.8l-.93,1.13h.79l.83-.79,1,2.06Zm-.82,1.41.55-.09.27.67.39.19-.57-1.27Zm-.11-15.32-.92,1.13H188l.83-.79,1,2.07-.92-2.41Zm1.2,2.19-.57-1.27-.65.5.56-.09.27.67Zm-2,8.36c.27,0,.41.26.5.69.14,1.05.93,1.51,1.19.29.08-.39.26-.52.49-.42v-.23l-2.18-.56Zm81.27-8.44L266.15,315h1.46v-.05h-1l2-.89,2,.89h-1V315h1.46S268.64,313.65,268.62,313.69ZM214.86,337c1.16-.14.89,1.53,2.09,1.48s.93-1.62,2.09-1.48v-.23h-4.18Zm-57.94-5.39h1.24l.81.06,0-.18-.82-.06h-1.25Zm53.68-17.87L208.07,315h1.46c.09-.12-.9,0-1-.05l2-.89,2,.89h-1c-.09.12,1.46,0,1.47.05S210.62,313.69,210.6,313.69ZM218.08,336v-5.73h-2.26V336Zm0-13v-5.73h-2.26V323ZM217,326.71,214.44,328h1.46c.09-.12-.9,0-1-.06l2-.89,2,.89h-1c-.1.13,1.45,0,1.46.06Zm-8.48-2.79c1.16-.14.89,1.53,2.09,1.48s.93-1.62,2.09-1.48v-.23h-4.18Zm10.19-7.07h-3.46v.23h3.46ZM208.49,337c1.16-.14.89,1.53,2.09,1.48s.93-1.62,2.09-1.48v-.23h-4.18Zm49.15-20.1h-3.45v.23h3.45Zm-45.33,13h-3.46v.23h3.46Zm-.6-6.91v-5.73h-2.26V323Zm0,13v-5.73h-2.26V336Zm.6-19.15h-3.46v.23h3.46Zm-1.71,9.86L208.07,328h1.46c.09-.12-.9,0-1-.06l2-.89,2,.89h-1c-.09.13,1.46,0,1.47.06Zm20-13.2a3.08,3.08,0,0,0-2.77,3.32c0,.92,0,15.92.11,5.19-.4-7.93,5.05-6.19,5.34-1.45l.06,5.32,0-9.06A3.08,3.08,0,0,0,230.61,313.51Zm5.87,0a3.09,3.09,0,0,0-2.77,3.32v7h.45v2h.29v-2.16h-.63v-5h.38l.68,1.94s1.57,0,1.55,0,1.56,0,1.56,0l.68-1.94H239v5h-.62v2.16h.29v-2h.45v-7A3.11,3.11,0,0,0,236.48,313.51Zm5.78,0a3.08,3.08,0,0,0-2.77,3.32l0,9.06.06-5.32c.29-4.74,5.74-6.48,5.33,1.45.1,10.73.12-4.28.12-5.19A3.08,3.08,0,0,0,242.26,313.51Zm-27.4,10.41c1.16-.14.89,1.53,2.09,1.48s.93-1.62,2.09-1.48v-.23h-4.18Zm35.66,6.39h-1.71V314.76c0-.38.26-1.54.74-1.14.42.56.78-.11.94-.5h-2v-.82H248v.82h-1.86c.12.39.44.93.86.52s.85.66.84,1.1V330.2h-1.14v.58h-.95v.59h5.34v-.51h-.56Zm7.12-.43h-3.45v.23h3.45Zm-1.77-3.16L253.41,328h1.46v-.06h-1l2-.89,2,.89h-1V328h1.47S255.89,326.68,255.87,326.72Zm1.18,9.28v-5.73h-2.27V336Zm-3.22.95c1.15-.14.89,1.53,2.09,1.48s.93-1.62,2.09-1.48v-.23h-4.18ZM227,312.69s9.48,0,9.48,0v-.12H227l-.47-.33H225.3v.11h1.19Zm19,0,.45-.33h1.2v-.11h-1.22l-.47.33h-9.45v.12S245.91,312.71,245.92,312.69Zm-28.95,1L214.44,315h1.46c.09-.12-.9,0-1-.05l2-.89,2,.89h-1c-.1.12,1.45,0,1.46.05S217,313.69,217,313.69Zm17.91,10.12H238v-3h-3.11Zm-32.77.11c1.16-.14.9,1.53,2.1,1.48s.93-1.62,2.09-1.48v-.23h-4.19Zm24.06,6.28H225V314.74c0-.45.28-1.51.84-1.1a.41.41,0,0,0,.7-.15l.15-.37h-1.86v-.82h-.53v.82h-2l.22.45a.4.4,0,0,0,.72.05c.47-.41.74.78.73,1.14v15.55h-1.7v.55h-.56v.51h5.33v-.59h-1Zm-21.94-16.51L201.69,315h1.47c.09-.12-.91,0-1-.05l2-.89,2,.89h-1c-.1.12,1.46,0,1.47.05S204.25,313.69,204.23,313.69ZM366,362.91c.32-.8-.11-3.24-1.19-2.45-.23.18-.47.43-.74.43s0-1.08-.09-2.3c-.15-2.22-.8-5-2.37-4.73-1.6.55-2.08,2.95-2.61,4.36-.25.73-.51,2.4-1.1,1.44s-1.52-.1-1.73.95c-.5,1.44-.22,4.31-.54,5.43-.15.21-.34,0-.61-.14a.87.87,0,0,0-1.1.15c-1,.77-.67,2.74-.56,3.21s.79,1.11.74,1.43c-.21.28-1.23-.58-1.63-.09-.58.59-.45,1.87-.26,2.58s1.12,1.51,1.05,1.84-.32.18-.62.41-.43,1.44-.58,1.9a6.77,6.77,0,0,1-.77,1.23c-.17.22-.47,2,.39,1.71a15.77,15.77,0,0,0,2.15-2.88c2.47-3.9,4.87-8.12,5.81-12.67-.66,4.71-4.18,11.35-7.3,15.91,1.46-.21,5.33-3.54,6.1-4.79.11-.86-.79,0-.69-.58,1.24-.81,3.68-1.26,4.86-2.63.76-.58,1.91-2.92.47-3.1-.42,0-.91,0-1.09-.22C362,368.82,365.92,364.69,366,362.91Zm-3.15-146.84c-.47.47.09,1,0,1.53,0,.18-.73,0-1.56,0-4.13,0-5.1,3.39-1.33,5.3.61.34,1.42.71.75,1.25a1.11,1.11,0,0,0,.29,2c1.25.63,3.23.22,3.44.54s-.35.69-.41,1c-.21,1.08,1.25,1.42,1.94,1.08.32-.12.9-.89,1.09-.81.12.26-.68,1.5-.43,1.88.25.66,1.1.5,1.6.29s1.22-1.25,1.41-1.17,0,.35.13.67.82.45,1.08.6.51.71.62.8c.58.46,1.4,0,1.12-.74-.77-1.28-1.82-2.68-2.75-3.95a15.52,15.52,0,0,0-5.56-4.06c.05,0,.2,0,.29.08,3.23,1.16,5.8,3.77,7.75,6.52l.71,1a4.69,4.69,0,0,0-.21-2.09c-.43-1.39-.54-3.14-1.41-4.24-.53-.09-.17.82-.52.73-.27-1.23,0-3.65-.62-5a1.73,1.73,0,0,0-1.1-1.16c-1-.25-.83,1.43-1.23,1.78-.1.09-.3-.27-.58-.81C366.51,217.52,364.72,214.19,362.84,216.07Zm-5,132.44c.16-2.53.21-20.26.17-23.21,0-4.84-1.71-8.51-3.81-8.2s-3.82,4.24-3.82,8.78v17.88a21.34,21.34,0,0,1,.21,3.92ZM205.34,323v-5.73h-2.27V323Zm133.21,23.35c.12-2.12.16-17.07.13-19.56-.16-10-5.83-8.48-5.88.45v15.16a20.35,20.35,0,0,1,.16,3.32Zm-7.92-.9c.11-2,.14-15.76.11-18.05-.14-9.23-5.4-7.83-5.45.41v14a18.42,18.42,0,0,1,.15,3.07Zm16.73,1.9c.13-2.31.17-18.53.13-21.23-.16-10.83-6.15-9.24-6.2.48V343a22.86,22.86,0,0,1,.17,3.61Zm11.17-38.64-4.7.91v-4l4.7-1.15v-.14l-4.7,1.14v-.42l4.63-1.15v-.29l-11.89,3V305h-2.1v2.1l-.46.11V305h-2.1v2.73l-1.35.34v-3.86h.85V304a2.8,2.8,0,1,1,5.59,0v.23h1v-.46h-.6a3.52,3.52,0,0,0-.83-2.06H350l-5.77-4.09-5.76,4.09h3.4a3.52,3.52,0,0,0-.83,2.06h-.45v-1.36h-.31v5.76l-11.84,2.95h-1.55v.39l-.45.11v-.5h-2.1v1l-.77.2h0l-.55.14v-8.25h.85V304a2.8,2.8,0,1,1,5.59,0v.23h1v-.46h-.6a3.52,3.52,0,0,0-.83-2.06h3.4l-5.77-4.09-5.76,4.09h3.4a3.52,3.52,0,0,0-.83,2.06H323v-1.36h-.31v10.15l-2.73.68v2.92l-2.62.51v.57s0,26.68,0,26.68h.15V317.21l41.07-8Zm-35.95,7-2.35.45v-2.27l2.35-.57Zm0-2.54-2.35.57v-.22l2.35-.58Zm.93,2.36-.72.14v-2.79l.72-.18Zm3.29-.64-2.87.55v-2.45l2.87-.7Zm0-2.75-2.87.7v-.24l2.87-.72Zm1.49,2.46-1.27.25v-3l1.27-.32Zm3.44-.67-3,.59v-2.7l3-.74Zm0-3-3,.73v-.27l3-.75Zm1.89,2.63-1.68.32v-3.29l1.68-.42Zm3.69-.72-3.27.63v-3l3.27-.8Zm0-3.27-3.27.79V310l3.27-.82Zm1.81,2.92-1.62.32v-3.61l1.62-.41Zm4.55-.88-3.9.76v-3.26l3.9-.92Zm0-3.56-3.9.92v-.34l3.9-1Zm2.22,3.13-2,.38v-4l2-.49Zm4.61-.89-3.94.76v-3.57l3.94-1Zm0-3.94-3.94,1v-.41l3.94-1Zm2.49,3.46-2.23.43v-4.36l2.23-.56Zm31-1.69c1-1.63,2.37-3.86,1.73-5.77-.51-1.27-1.51.48-2,.38-.26,0,.42-2.19.64-4.38.13-1.52.38-4.2-1.57-4.44-.63,0-.57,1-1,1.36-.14.13-.48-.78-1.07-1.59-1.08-1.49-2.81-3.09-4-1.7s-.3,5-.12,6.22c.19,1.51-.71.42-1.38,1.18-.93,1,.28,3.5.93,4.47s1.38,1.67.24,2a1.42,1.42,0,0,0-.87,1,2.45,2.45,0,0,0,1,2.59c.31.22,1.16.11,1.27.37s-.26.26-.59.44c-1.46.57-.71,2.15.19,2.66.49.33,1.63.13,1.72.39s-.17.37-.3.75.32,1.28.42,1.69a8,8,0,0,1-.06,1.38c0,.43.6,1.58,1.12.82a49.1,49.1,0,0,0,.31-11.83,22.08,22.08,0,0,0-.92-4.95c1.44,4.13,1.5,8.72,1.48,13.06,0,1.16-.08,2.34-.16,3.45,1.05-1.27,2.57-5.9,2.74-7.76-.31-.66-.64.6-.83.14C382.8,309.63,383.64,308.59,384,308.07Zm-4.3-72.46a10.63,10.63,0,0,1,1.56,3.63c-.23.47-.41-1.1-.73-.15.08,1.91.12,6.35.71,7.81a108,108,0,0,0,2.44-13.35,39,39,0,0,1-.67,6.72c-.39,2.23-.9,4.7-1.29,6.81,0,.27-.08.66.44.71.94-.36.69-1.23,1.06-2.08.18-.34.79-1.07.77-1.5-.47-1.61.44-.51,1.46-.67a1.74,1.74,0,0,0,1.27-1.62c0-.84-1.1-1.51-1-1.75s.87.12,1.18,0a2.59,2.59,0,0,0,1.23-3.09c-.14-.81-.89-1.23-1.1-1.86s.32-1.12.75-2.19c.51-.81.27-2.43,1.33-2.82a2.82,2.82,0,0,0,0-.64c0-.61-.5-1.31-1-1.17-.32.15-.59-.27-.55-1.33,0-2.54.56-6.15-1-8.47-1.36-1.6-2.57.83-3.33,2.75-.42,1.06-.62,2.18-.76,2.06-.43-.39-.5-1.55-1-1.36-.7.24-1,1-1.14,1.91-.4,1.68,1,7.78.76,8.15-.23,0-.56-.42-.88-.7s-.66-.39-.9.31A6.75,6.75,0,0,0,379.65,235.61Zm7.66,23.22c-1,2.55,1.11,5.87,1.51,8.19-.26.41-.32-.9-.72-.34-.23,1.14.12,4.23.14,5.76,0,1.35.14,2.3.33,2.39,1.61-5.39,2.52-11.12,4.36-16.43.22-.59-.16.44-.19.59-1.46,5.23-2.35,10.93-3.68,16.12,0,.29-.1.67.45.81,1-.21.76-1.17,1.17-2,.2-.34.87-1,.86-1.43-.41-1.76.5-.46,1.55-.44a1.54,1.54,0,0,0,1.39-1.48c0-.89-1.14-1.79-1-2s.91.28,1.24.19a2.24,2.24,0,0,0,1.46-2.52,2.33,2.33,0,0,0-.64-1.54c-1-.74-.21-1.15.5-2.25,1.3-1.4,2.42-5.63.49-5.95-.36,0-.6-.31-.48-1.24.3-1.48.87-6.7-.38-8.27-1.33-1.92-2.74.34-3.64,2.15-.5,1-.79,2.08-.92,1.93-.39-.33-.35-1.59-1-1.58-2.26.78-1.24,4.87-1.19,6.87,0,.74.41,2.81.19,3C388.64,259.43,387.87,257.53,387.31,258.83Zm-1.4,25.23c.55-1.5.37-6.15-.07-7.67-.49-.35-.38.84-.69.57.07-1.52,1-4.08.78-5.84a2.62,2.62,0,0,0-.7-1.82c-.86-.75-1.17,1.19-1.65,1.39-.61-1.47-.59-4.9-1.82-6.27a1.3,1.3,0,0,0-1.77-.37c-.58.33-.19,1.14-.47,1.64-.09.17-.66-.38-1.44-.73-3.3-1.61-5.39.64-3.55,3.85a19.23,19.23,0,0,0,1.29,2.12c.34.55.19.89-.18,1s-1.31,1-.29,2.39c.65,1.08,2.51,1.62,3.07,2.32,0,.59-.91.85-.81,2,0,1.29,1.39,1.47,1.73,1.47s1.06-.57,1.24-.42-.91,1.08-.81,1.74.94,1,1.47.93c.93-.09,2-1.51,1.6.11,0,.37.68.83.89,1.1a5.77,5.77,0,0,1,.4,1.13c.27.52,1.08.79,1.24,0a23.75,23.75,0,0,0-1.59-5.32,27.25,27.25,0,0,0-4-7.51c-.07-.09-.21-.23-.24-.26s.17.15.25.24C382.76,275.25,384.52,279.77,385.91,284.06Zm-7.77,47.58c.79-1.93,2.48-5.14.33-6.57-.57-.31-.78.72-1.29.91-.17.06-.25-1-.6-2-.63-1.92-1.86-4.19-3.35-3.38s-1.37,3.32-1.58,4.83c-.09.78,0,2.37-.81,1.77s-1.51.15-1.57,1.61c-.13,2.1.88,4.53.69,5s-.94-.42-1.72.7c-.66.85-.2,2.41.22,3,.22.36,1.05.66,1.07,1s-1.28-.08-1.63.57a2.51,2.51,0,0,0,.37,2.36c.65.9,2.27.86,1,1.79-.23.31-.08,1.42-.11,1.87a8.27,8.27,0,0,1-.45,1.38,2,2,0,0,0,.2,1.27c.43.43.66,0,.82-.2,2-5.17,4-11.07,4-16.77a18.36,18.36,0,0,1,0,3,57.16,57.16,0,0,1-3.39,14.06c1-.33,1.95-2.12,2.75-3.1.43-.63,3-4.08,1.59-3.59-.19.11-.37.24-.39,0,1-1.2,3.28-2.51,4.15-4.14a4,4,0,0,0,.64-2.27c-.13-1.49-1.54-.17-2-.49C376.85,333.92,377.88,332.31,378.14,331.64Zm-1.29-90.34c-.85-1-1.5-4.31-3.11-5.26a1.35,1.35,0,0,0-1.86.29c-.51.5.05,1.15-.12,1.77-.06.2-.74-.11-1.61-.15-1.58-.1-3.72.27-4,2.3-.19,1.76,1.51,3.18,2.87,3.91.3.2.37.39.2.63-.72.51-1.15,1.76,1.22,2.48-1.48.2-1.77,1.73-1.12,2.12a1,1,0,0,0,.71.15c.77,0,2.55-.49,3-.18.05.21-.49.6-.55.92-.15.74.21,1.74,1,1.85a2.1,2.1,0,0,0,1-.07c.35-.11,1-.94,1.18-.85s-.73,1.44-.51,2.09,1.15.67,1.68.46,1.31-1.33,1.51-1.23.05.41.12.79.86.61,1.13.81.49.88.61,1a.84.84,0,0,0,.89.23.77.77,0,0,0,.37-.65,27.54,27.54,0,0,0-4-6.7l-4.06-5.17s2.37,2.78,2.68,3.15c.85,1,1.9,2.17,2.66,3.25,1,1.44,2.29,3.16,3.13,4.67a6.36,6.36,0,0,0-.16-2.48,41.36,41.36,0,0,0-1.07-4.64c-.16-.42-.22-.64-.52-.48s-.07.86-.36.75c-.2-1,.22-2.2-.21-3.68a13.16,13.16,0,0,0-.45-2.76c-.28-1-1.48-1.83-1.85-.51C377.17,240.58,377.07,241.13,376.85,241.3ZM369,204.46c.28.64,1.19,2.26,1.07,2.55-.38.27-1.57-1-1.64.45-.15,2.53,2.59,4.54,3.62,6.41-.1.49-.52-.64-.69.07.38,1.45,1.76,6.13,2.5,7.09.09-5.33-.94-12.42-1-16.91.16,4.59,1.17,9.22,1.28,13.83a22.89,22.89,0,0,0,.27,3.32s.18.35.49.17c.74-.65.33-1.36.45-2.29.08-.39.46-1.29.34-1.65s-.34-.45-.26-.72,1-.11,1.44-.43c.73-.46,1.34-2.19.07-2.71s0-.53.54-.86a3.07,3.07,0,0,0,.62-.94,2.9,2.9,0,0,0-1.2-3.44c-.3-.11-.51-.08-.6-.39-.15-.6.86-2.73.61-5.16-.18-1.46-.69-2.65-1.7-2.3-.28.23-.58,0-.77-.85a31.2,31.2,0,0,0-.8-3.44c-1.18-4.22-3.82-5.53-4.28.33-.11,1.13,0,2.18-.18,2.13-.47-.15-.82-1.17-1.25-.79C366.47,199.16,368.1,202.55,369,204.46ZM205.93,329.88h-3.45v.23h3.45ZM202.11,337c1.16-.14.9,1.53,2.1,1.48s.93-1.62,2.09-1.48v-.23h-4.19Zm-4.25-23.26L195.32,315h1.47c.08-.12-.91,0-1-.05l2-.89,2,.89h-1c-.1.12,1.46,0,1.46.05S197.88,313.69,197.86,313.69Zm8.07,3.16h-3.45v.23h3.45Zm-10.19,7.07c1.16-.14.9,1.53,2.09,1.48s.93-1.62,2.09-1.48v-.23h-4.18Zm8.49,2.79L201.69,328h1.47c.09-.12-.91,0-1-.06l2-.89,2,.89h-1c-.1.13,1.46,0,1.47.06Zm1.11,9.29v-5.73h-2.27V336ZM199,336v-5.73H196.7V336Zm.6-6.12h-3.45v.23h3.45ZM195.74,337c1.16-.14.9,1.53,2.09,1.48s.93-1.62,2.09-1.48v-.23h-4.18ZM321.41,409.2c1.35-1.21,2.21-2.9,1.42-4.76-.29-.74-.74,0-1.18-.3,0-.93.5-4.39.08-5.82-1-5-3-.86-4,1.42-.31.6-.55.43-.65-.1-1.49-3.62-2.55,4.56-2.92,5.06-.25.2-.39-.67-.89-.89a20.27,20.27,0,0,0-3.34.79c-1.35.53-1.7,2.53-1.31,3.52.31.67,2.15,1.83.07,1.39s-2.39,1.83-1.7,3c.19.53,1.5,1.11,1.55,1.6s-.39.26-.74.56-.35,1.59-.44,2c-.22.9-.79,1.23-.7,2.05.15,1.43,1,1.13,1.44,0a34.37,34.37,0,0,1,4.1-6.23l1.08-.22a22,22,0,0,0,4.4-7c-.06.18-.15.51-.24.74a25,25,0,0,1-4.16,6.82l-1,.2a34.44,34.44,0,0,0-4,6.73c1.14-.36,2.1-1.51,3.21-2.22.62-.35,1.1-.88,1.78-1,1-.35,2-.85,1.23-1.37-.17-.07-.34-.11-.25-.37.49-.24,1.8.32,2.52.26,1.29.07,2.72-.25,3.18-1.74a1.12,1.12,0,0,0-.37-1.36c-.33-.27-.74-.45-.84-.79S320.15,410.35,321.41,409.2ZM197.86,326.71,195.32,328h1.47c.08-.12-.91,0-1-.06l2-.89,2,.89h-1c-.1.13,1.46,0,1.46.06ZM199,323v-5.73H196.7V323Zm.6-6.12h-3.45v.23h3.45Zm19.12,13h-3.46v.23h3.46Zm-61.76-21.56h1.24l.8.27,0-.17-.81-.27h-1.27Zm0-1.55h1.24l.79.32.06-.17-.82-.32h-1.27Zm0-1.54h1.23l.8.35.06-.17-.81-.36h-1.28Zm0,7.74h1.24l.8.28,0-.17-.81-.29h-1.27Zm0-9.29h1.23l.8.4.06-.16-.81-.42h-1.28Zm0,7.74h1.24l.8.3,0-.18-.81-.3h-1.27Zm0-1.55h1.24l.79.31L159,310l-.81-.31h-1.27Zm0-7.74h1.23l.8.37.06-.17-.81-.38h-1.28Zm2.09-9-.81-.44h-1.28v.18h1.23l.8.43Zm-2.09,1.28h1.23l.8.41.06-.16-.81-.42h-1.28Zm0,1.55h1.23l.8.39.06-.16-.81-.4h-1.28Zm0,3.1h1.23l.8.42.06-.17-.81-.42h-1.28Zm0-1.55h1.23l.8.43.06-.16-.81-.44h-1.28Zm0,3.1h1.23l.8.4.06-.16-.81-.41h-1.28Zm0,13.94h1.23l.81.23,0-.18-.83-.23h-1.25Zm0,26.33a20.16,20.16,0,0,0,2.06-.06v-.18a19.88,19.88,0,0,1-2.05.06Zm2.06-3.12v-.18c-.48,0-1.57,0-2.06,0v.18C157.41,337.76,158.5,337.75,159,337.73Zm-2.06,4.67a14.28,14.28,0,0,0,2.07-.09l0-.18a14,14,0,0,1-2.05.09Zm0-12.39h1.25l.81.05v-.18l-.81-.05h-1.25Zm0-3.1h1.24l.81.08,0-.18a15.85,15.85,0,0,0-2.07-.08Zm0,12.39c.49,0,1.58,0,2.06,0v-.18c-.48,0-1.57.05-2.06,0Zm0-10.84h1.24l.81.07,0-.19-.82-.06h-1.25Zm0-10.84a6.17,6.17,0,0,1,2,.18l0-.18-.82-.18h-1.25Zm0,1.55a4.78,4.78,0,0,1,2,.22l0-.18-.83-.22h-1.25Zm0,1.55a5.69,5.69,0,0,1,2,.19l0-.18-.83-.2h-1.25Zm0-4.65h1.24l.8.25,0-.18-.81-.25h-1.27Zm0,9.29h1.24l.81.1,0-.18a13,13,0,0,0-2.07-.1Zm0-3.1h1.24l.81.13,0-.17a10.2,10.2,0,0,0-2.07-.14Zm0,1.55h1.24l.81.12,0-.18a11,11,0,0,0-2.07-.12Zm103.28.11c1.16-.14.89,1.53,2.09,1.48s.93-1.62,2.09-1.48v-.23H260.2Zm3.22-.95v-5.73h-2.26V323Zm-1.17-9.28L259.78,315h1.46v-.05h-1l2-.89,2,.89h-1V315h1.46S262.26,313.65,262.25,313.69Zm1.77,3.16h-3.46v.23H264Zm4.6,9.87L266.15,328h1.46v-.06h-1l2-.89,2,.89h-1V328h1.46S268.64,326.68,268.62,326.72Zm1.77,3.16h-3.46v.23h3.46Zm-.6,6.12v-5.73h-2.26V336Zm-13.92-22.31L253.41,315h1.46v-.05h-1l2-.89,2,.89h-1c-.13.12,1.46,0,1.46.05S255.89,313.65,255.87,313.69Zm-2,10.23c1.15-.14.89,1.53,2.09,1.48s.93-1.62,2.09-1.48v-.23h-4.18Zm6.37,13c1.16-.14.89,1.53,2.09,1.48s.93-1.62,2.09-1.48v-.23H260.2Zm2.05-10.23L259.78,328h1.46v-.06h-1l2-.89,2,.89h-1c-.13.13,1.46,0,1.46.06S262.26,326.68,262.25,326.72Zm1.77,3.16h-3.46v.23H264Zm-.6,6.12v-5.73h-2.26V336Zm3.15.95c1.16-.14.9,1.53,2.09,1.48s.93-1.62,2.09-1.48v-.23h-4.18Zm3.82-20.1h-3.46v.23h3.46Zm5.78,6.12v-5.73H273.9V323ZM275,326.72,272.52,328H274v-.06h-1l2-.89,2,.89h-1V328h1.46S275,326.68,275,326.72Zm1.77-9.87h-3.45v.23h3.45ZM275,313.69,272.52,315H274v-.05h-1l2-.89,2,.89h-1V315h1.46S275,313.65,275,313.69ZM257.05,323v-5.73h-2.27V323ZM310,343.4a47.78,47.78,0,0,0,6,.55v-.18H314.7l-2-.23V325l-2.77.35v17.91l-1.3-.16V325.47l-2.41.31v17l-1.3-.16V326l-2.54.32v16.05l-2.25-.26v-15.5l-2.69.34v14.84l-1.31-.16V327.07l-2.37.3V341.3l-1.32-.15V327.54l-2.1.26v13.1l-1.32-.16V328l-2.05.26V340.5l-1.32-.16V328.4l-2.29.29v11.38l-1.32-.15V328.86l-1.39.18v10.71s-1.56-.19-1.57-.18L279,311.92a1,1,0,0,1,.45-.89c8.48-4.63,26.89-14.79,35.29-19.32h41.38l2.78-3.37-44.11,0-15.14,9.11-21,12.64s-84.3,0-84.32,0l-36.15-21.75-44.11,0,2.77,3.37h41.39c8.37,4.52,26.78,14.68,35.29,19.32a1,1,0,0,1,.45.89l-.14,27.65s-1.57.18-1.58.18V329l-1.39-.18v11.06l-1.31.15V328.69l-2.3-.29v11.94l-1.31.16V328.23l-2.06-.26v12.77l-1.31.16V327.8l-2.11-.26v13.61l-1.31.15V327.37l-2.37-.3v14.51l-1.31.16V326.9l-2.69-.34v15.5l-2.25.26V326.27l-2.54-.32v16.67l-1.3.16v-17l-2.41-.31v17.59l-1.3.16V325.31l-2.78-.35v18.59l-2,.22h-1.25V344h1.25c1.78-.17,32.77-3.92,35.6-4.24h85.32Zm-88.73-6.71h-.83v2.83H194.16l.13-26.57a.86.86,0,0,1,.78-.91H221l.24,1.87Zm30.23,0h-.54v2.83H244.8V330a2.07,2.07,0,0,0-4.13,0v8l.46.44v1.11H238v-1.11l.4-.44v-8a2.07,2.07,0,1,0-4.13,0v8l.46.43v1.11h-3.09v-1.11l.41-.45v-8a2.07,2.07,0,0,0-4.13,0v9.55h-6v-2.83h-.54v-22.8l-.24-1.85H251.7l-.25,1.85Zm1,2.83v-2.83h-.83V313.91l.24-1.87h25.9a.86.86,0,0,1,.79.91l.13,26.57Zm20.46-15.6c1.16-.14.9,1.53,2.09,1.48s.93-1.62,2.09-1.48v-.23h-4.18Zm-6.37,0c1.16-.14.9,1.53,2.09,1.48s.93-1.62,2.09-1.48v-.23h-4.18Zm3.22-.95v-5.73h-2.26V323ZM316,331.38a20.36,20.36,0,0,0-2.07.06v.18a20.16,20.16,0,0,1,2.06-.06Zm-39.19-1.5h-3.45v.23h3.45ZM272.94,337c1.16-.14.9,1.53,2.09,1.48s.93-1.62,2.09-1.48v-.23h-4.18Zm3.23-.95v-5.73H273.9V336Zm-88.82-14.81,2.18.6v-7.63l-2.18-1Zm-7.62-35.54c.28,0,.27.08.26-.24h-2.53v.24h.26v1.29h.83v-1.29h.35v1.29h.83Zm-.83,2.85h.83v-1.29h-.83Zm8.13,0h.83v-1.29H187Zm-9.31,0h.83v-1.29h-.83Zm8.13,0h.83v-1.29h-.83ZM287,285.65c.28,0,.27.08.26-.24h-2.53v.24H285v1.29h.83v-1.29h.35v1.29H287Zm-.83,2.85H287v-1.29h-.83ZM131.16,273h-2.1v5.65h2.1Zm148.2,19.21c.27.22.05-2.88.12-4.53s-.57-.89-.57.06C278.91,287.77,279.36,287.36,279.36,292.24Zm-91-18h-1.51v2.11h1.51Zm-.5,11.37c.28,0,.27.08.26-.24h-2.53v.24h.26v1.29h.83v-1.29H187v1.29h.83ZM288.06,298l.37-1h-3.29l.37,1ZM178.9,276.39h1.5v-2.11h-1.5Zm108.18,18.82c-.93-.16-2,.46-1.94,1.28h.5A1.85,1.85,0,0,1,287.08,295.21ZM179.64,271.62l-2.22,2,2.22-1.62,1.58,1.15h-3.13l-3.64,4.65-1.73,1v1.63s19.26-.06,19.26,0l7.77,8.69-7.9-8.13-19.13-.36v14.87L158,286.94H150l0-13.5.69-.82v-.73l.41-1.11h-9.73l.39,1.15h7.86v15h-17l0-13.5.69-.82v-.73l.41-1.11H124l.39,1.15h7.86v15H114.82l-.8.92,44.15,0c8.49,5.09,27.52,16.78,36.16,22h84.21c8.59-5.25,27.61-16.83,36.07-22,.07-.07,44.15,0,44.24,0l-.8-.92H340.62v-15h7.86l.39-1.15h-9.74l.41,1.11v.73l.68.82,0,13.5h-17v-15h7.86l.39-1.15h-9.74l.41,1.11v.73l.68.82,0,13.5h-8.05l-14.71,8.59V280.66L281,281l-7.9,8.13,7.77-8.69c0-.1,19.23,0,19.26,0v-1.63l-1.73-1-3.64-4.65h-3.13l1.58-1.15,2.22,1.62-2.22-2-1.71,1.53h-.58l2.62-2.3-5.47-10.09-7.19,16.82L275,286l-3.52.7-21.91.05c-1.23,0-1.2,1.86-1.42,2-.89.73-1.35-.25-2.13-.33h-2.52l.67,2.75a1.46,1.46,0,0,0,1.76,1.11c.17-.57.33-1.79,1.11-1.76h1.39l0,2.55,26.72.07-.89-3.14,6.89-7.87h18.37l.49-.37v8.46L296.08,293H280.52l-2.86,2.72H239.07a1.08,1.08,0,0,0,.25-.74l-.76,0h-4.25l-.76,0a1.08,1.08,0,0,0,.25.74H195.21L192.35,293H176.79l-3.93-2.73v-8.46l.49.37h18.37l6.89,7.87-.89,3.14,26.72-.07,0-2.55c.71.06,2-.29,2.19.7l.3,1.06a1.46,1.46,0,0,0,1.77-1.11l.67-2.75h-2.53a1.16,1.16,0,0,0-.74.33,1.09,1.09,0,0,1-1.38,0c-.22-.19-.19-2-1.42-2l-21.91-.05-3.52-.7L192,277.58l-7.19-16.82-5.47,10.09,2.62,2.3h-.59Zm112.22,3.48v-.82c0-1,1.38-.57,2.17-.66s.54,1,.54,1.48l.88,2c.17.54-.31.56-.68.53-.58.08-.95.62-1.64.55s-1.16-.62-1.87-.55a.36.36,0,0,1-.26-.53Zm-4.63,2.58a1.37,1.37,0,0,0-.93.19,2,2,0,0,1-2.26,0c-.36-.37-1.2.08-1-.72l.85-2v-.82c0-1,1.38-.57,2.17-.66a.61.61,0,0,1,.55.66v.82l.87,2A.36.36,0,0,1,287.23,277.68Zm-3.55-4.53,1.58-1.15,1.58,1.15Zm1.49-2.3,2.28,2.3H287l-1.7-1.53-1.7,1.53h-.67ZM246.51,290.2c0-1.07,2-1.07,1.94,0ZM288,298.89v-.32h-2.68v2.24l-3,2.13v-5.16c0-1.15-.81-1.26-.81.67,0,1.22.12,6.06.12,6.06.69-.52,1.95-1.47,2.62-1.95v1.67l-5.65,3.86h-6.43l.09-7.41H276l.17-.5h-4.26l.18.49v7.42h-6.17l.09-7.41h3.72l.17-.5h-4.25l.17.49v7.42h-6.17l.09-7.41h3.73l.17-.5h-4.26l.18.49v7.42h-6.17l.09-7.41h3.72l.17-.5h-4.25l.17.49v7.42h-3.65v-.43h-3.37v.43H241l.09-7.41h3.72l.17-.5h-4.26l.18.49v7.42h-9v-7.42l.17-.49h-4.25l.17.5h3.72l.09,7.41H226.6v-.43h-3.38v.43h-3.65v-7.42l.18-.49H215.5l.17.5h3.72l.09,7.41h-6.17v-7.42l.18-.49h-4.26l.17.5h3.72l.09,7.41H207v-7.42l.18-.49H203l.17.5h3.72l.09,7.41h-6.17v-7.42l.18-.49H196.7l.17.5h3.72l.09,7.41h-6.43l-5.64-3.86v-1.67c.61.4,2.08,1.56,2.62,1.95,0,0,.12-4.84.12-6.06,0-1.93-.82-1.82-.82-.67v5.16l-3-2.13v-2.24h-2.68v.32l-5.76-4.13h13.12l2.63,2.33H222.7l.27.41h.11l-.12-.41h4l-.12.41H227l.27-.41h18.39l.26.41H246l-.12-.41h4l-.12.41h.11l.27-.41s27.85,0,27.85,0l2.62-2.32h13.12Zm-65.17-2.22h4.28l-.06.2-4.17,0Zm22.93,0H250l0,.16-4.17,0Zm-8.58-.94a12.51,12.51,0,0,1-1.5,0Zm-45-2.22,2.85,2.72h82.72l2.86-2.72h14.86l-.78.55H280.6l-2.81,2.46-27.45.3.28-.42h-5.45l.31.48-9,.1-9.05-.1.32-.48h-5.46l.28.42-27.45-.3-2.8-2.46H178.13l-.77-.55Zm33.17-4.14a.9.9,0,0,1,1,.83h-1.93A.9.9,0,0,1,225.39,289.37ZM187.7,270.85l2.27,2.3h-.66l-1.7-1.53-1.71,1.53h-.48Zm1.49,2.3H186l1.58-1.15Zm-2.94,2v-.82c0-1,1.38-.57,2.17-.66s.54,1,.54,1.48l.86,2c.15.38-.16.6-.48.53-.59.08-1,.62-1.64.55s-1.06-.47-1.65-.55c-.36,0-.85,0-.68-.53Zm-4.65,2.58c-.7-.07-1.09.63-1.86.55s-1.06-.47-1.64-.55c-.37,0-.86,0-.68-.53l.87-2v-.82c0-1,1.38-.57,2.17-.66a.61.61,0,0,1,.55.66v.82l.85,2A.36.36,0,0,1,181.6,277.68Zm13.69,11.45c.07,1.66-.16,4.74.12,4.54,0-4.89.45-4.48.45-4.48C195.86,288.24,195.29,287.49,195.29,289.13Zm-1.9-1.42c.07,1.65-.16,4.74.12,4.53,0-4.88.45-4.47.45-4.47C194,286.82,193.39,286.06,193.39,287.71Zm153-14.68h-2.11v5.65h2.11ZM285,288.5h.83v-1.29H285Zm59.25-3.72h2.11v-5.65h-2.11ZM343.81,273h-2.1v5.65h2.1ZM129.06,284.78h2.1v-5.65h-2.1Zm-2.56,0h2.1v-5.65h-2.1ZM128.6,273h-2.1v5.65h2.1Zm213.11,11.75h2.1v-5.65h-2.1Zm-47.39,3.72h.83v-1.29h-.83Zm-1.18,0H294v-1.29h-.83Zm31.23-3.72h2.1v-5.65h-2.1Zm-29.22.87c.28,0,.27.08.26-.24h-2.53v.24h.26v1.29H294v-1.29h.35v1.29h.83ZM326.47,273h-2.1v5.65h2.1Zm2.56,0h-2.11v5.65H329Zm-2.11,11.75H329v-5.65h-2.11Zm-49.46,8.89c.27.21.05-2.89.12-4.54s-.58-.89-.58.06C277,289.19,277.46,288.78,277.46,293.67Zm-59.2,4.86c0,1.07-1.21,1.11-1.21,0s-1.55,1.31-1.55,1.31h4.25S218.26,297.49,218.26,298.53Zm-6.27,0c0,1.07-1.2,1.11-1.2,0s-1.56,1.31-1.56,1.31h4.26S212,297.49,212,298.53Zm14.87-.91h-3.8v.22h3.8Zm-3,2.07c.56,0,.61-1.34,1.15-1.34s.55,1.34,1.14,1.34.71-1.67.71-1.67H223S223.33,299.69,223.88,299.69Zm-.11,7H226v-.14h-2.19Zm7.38-4.9h-2.27v4.86h2.27Zm-12.35,0h-2.27v4.86h2.27Zm-12.53,0H204v4.86h2.27Zm-13.57-3.77h.79a.74.74,0,0,1,.82-.83C193.09,296.92,192.7,297.33,192.7,298.05Zm-6.61-2.86-.31,0a1.83,1.83,0,0,1,1.44,1.28h.51A1.5,1.5,0,0,0,186.09,295.19ZM200,301.82h-2.26v4.86H200Zm30.61-3.29c0,1.07-1.2,1.11-1.2,0s-1.56,1.31-1.56,1.31h4.25S230.61,297.49,230.61,298.53Zm-24.88,0c0,1.07-1.21,1.11-1.21,0s-1.55,1.31-1.55,1.31h4.25S205.73,297.49,205.73,298.53Zm6.8,3.29h-2.26v4.86h2.26Zm-13.07-3.29c0,1.07-1.2,1.11-1.2,0s-1.56,1.31-1.56,1.31H201S199.46,297.49,199.46,298.53Zm75.15,0c0,1.12-1.2,1.08-1.2,0s-1.5,1.3-1.5,1.3h4.26S274.61,297.51,274.61,298.52Zm-8,8.16h2.27v-4.86H266.6Zm-4.52-8.16c0,1.12-1.2,1.08-1.2,0s-1.5,1.3-1.5,1.3h4.26S262.08,297.51,262.08,298.52Zm6.26,0c0,1.12-1.2,1.08-1.2,0s-1.49,1.3-1.49,1.3h4.25S268.34,297.51,268.34,298.52Zm4.53,8.16h2.26v-4.86h-2.26Zm6.34-6.44s.68-.41.68,4.47h.18v-4.53C280.07,298.53,279.21,299.29,279.21,300.24Zm-42.78-.62,3.74-.25h-7.48Zm23.91,7.06h2.26v-4.86h-2.26Zm18.22-9.46a.74.74,0,0,1,.82.83h.79C280.17,297.33,279.78,296.92,278.56,297.22Zm-28.76.4H246v.22h3.79Zm-6.34.9c0,1.12-1.2,1.08-1.2,0s-1.5,1.3-1.5,1.3H245S243.46,297.51,243.46,298.52Zm-1.74,8.16H244v-4.86h-2.26Zm5-7c.59,0,.6-1.34,1.14-1.34s.59,1.34,1.14,1.34.87-1.67.87-1.67H246S246.18,299.69,246.7,299.69Zm7.37,7h2.27v-4.86h-2.27Zm-7.17,0h2.2v-.14h-2.2Zm8.91-8.2c0,1.12-1.2,1.08-1.2,0s-1.49,1.3-1.49,1.3h4.25S255.81,297.51,255.81,298.52Zm-63,1.66v4.53H193c0-4.88.67-4.47.67-4.47C193.65,299.29,192.8,298.53,192.8,300.18ZM82.16,268.47a1.14,1.14,0,0,0,1,.55,26.83,26.83,0,0,1-2-6.1c-1.53-6.79.08-13.82,0-20.67.44,8.87-1.57,18.28,2.26,26.66l-.12.1a1.56,1.56,0,0,0,1-1c5.18-11.78,2.69-24.32-3.64-31.54C76.77,244,74.26,257.89,82.16,268.47Zm7.36,11.59a22.59,22.59,0,0,1-6,10,1,1,0,0,0,1,0,21,21,0,0,0,8.48-9.78c3.22-7.71,1.6-17.32,1.6-17.32-8.65,3.88-13.15,14.25-11.89,25.66a1.93,1.93,0,0,0,.63,1.37c2.18-2.9,4.6-6.31,5.66-10.17,1.35-3.87,2-8.28,3.59-12C91.33,271.69,90.84,276.06,89.52,280.06Zm37.28-99.22c8.07-1.86,13.14-9.27,19.37-14.12-4.67,4.06-8.51,9.69-14.1,12.57-.89,1-7.13,1.86-4.33,2.42,12.3.74,20.29-11.9,22.64-18.09a20,20,0,0,0-14,3.74c-4.72,3.48-7.92,9.07-9.42,12.1C126.63,179.84,126.74,181.4,126.8,180.84Zm-45,135a1.11,1.11,0,0,0,1.18.13,22.05,22.05,0,0,1-3.39-5.3c-3-6.43-2.64-14.07-4-20.92,2.26,8.64,1.76,18.74,7.7,26l-.1.15a2.21,2.21,0,0,0,.9-1.47c2.89-12.83-.8-24.9-10.16-30.35C71.66,291.74,70.29,307.65,81.78,315.81ZM158,418.5a1,1,0,0,0,1.12-.38l-.12.05c-1.91-8-8.25-12.88-13.09-19,5.36,5.65,11.73,10.66,13.3,18.83a2.11,2.11,0,0,0,.25-1.34c-1-11.14-7.19-20-16.41-21.62C143.22,401.65,146.35,415.41,158,418.5Zm-21.5-15c-7.61-3.92-16.3-1.77-16.3-1.77s3.64,8.49,11.24,12.41c5.33,2.75,11.19,2.52,14.22,2.13,3.46-.92-3.85-.93-4.93-1.78-6.16-1.91-10.5-6.93-15.77-10.31,3.76,1.84,6.82,4.88,10.39,7,3.38,2.4,7.78,3.42,11.5,4.25a1.6,1.6,0,0,0-.1-1.48C145.19,411.21,141.82,406.21,136.49,403.47Zm-18.43-14.93c-8.52-1.54-12.74-10-18-15.84,5.79,5.37,9.94,13.49,18.18,15.51l0,.18a2.17,2.17,0,0,0,.13-1.66c-1-3.29-3.29-9.35-7.71-13.17-6.31-5.45-14.53-4.27-14.53-4.27s2,10,8.32,15.46A19.37,19.37,0,0,0,117,389.13,1.32,1.32,0,0,0,118.06,388.54ZM97.31,356.67c-8.84-3.4-11.54-13.63-16-21,5.09,7,7.82,16.8,16.24,20.68l0,.19a2.7,2.7,0,0,0,.41-1.87c-.48-3.9-1.87-11.19-5.81-16.27a19.59,19.59,0,0,0-14.31-7.26s.43,11.74,6.06,19a19.27,19.27,0,0,0,12.29,7.06A1.33,1.33,0,0,0,97.31,356.67ZM89,249.44c6.42-4.39,8.43-12.51,12.29-18.86-3.41,6.61-5.39,15-12.14,19.1a.93.93,0,0,0,1,.17,19.79,19.79,0,0,0,9.47-7.64c4.25-6.6,4.36-15.75,4.36-15.75a19.62,19.62,0,0,0-11,8.14c-3,4.62-3.92,10.5-4.22,13.61a1.81,1.81,0,0,0,.36,1.37Zm45.42-5.69H128.9l-6.37,8.12-9.19,6.95h4.34l40.49.15,16.19,15.85-1.26,0v-.2h.75l-15.67-14.65-40.28-.05-3.65-.62,3.44,2.3,40.49,0,14.55,13v1l1.94-.28,1.53-.24-16.07-15.89-4-5-11-32.75L131.87,240l3.75,3.78h-1l-3-2.69-3.89,3.5,3.89-2.82Zm11.33-4,4,4h-1.16l-3-2.69-3,2.69h-.85Zm2.6,4h-5.52l2.76-2Zm-6.66,7,1.53-3.59c0-.81-.24-2.58.95-2.59H147c1.19,0,.94,1.78,1,2.59l1.5,3.59c.18.42-.07.93-.46.93-1.24-.13-1.91,1.09-3.26,1-1.22.13-1.86-.82-2.88-1C142.17,251.69,141.37,251.76,141.65,250.74Zm-6.14,0c.24.7-.26,1-.85.93-1,.13-1.66,1.08-2.87,1-1.22.13-1.86-.82-2.88-1-.66,0-1.46.09-1.18-.93l1.53-3.59c0-.81-.24-2.58,1-2.59h2.84c1.19,0,.94,1.78,1,2.59Zm-5.2-1.32H133v-3.7h-2.64Zm16.56-3.7h-2.64v3.7h2.64ZM93.69,230.38c-3-8.16,1.15-16.72,2.82-24.73-1.09,8.09-5,16.45-2.52,24.63l-.14.09a2.06,2.06,0,0,0,1.28-.93c6.88-9.76,8-21.39,2-29.16,0,0-6.31,7.94-7.23,16.53a21.43,21.43,0,0,0,2.89,13.05A1,1,0,0,0,93.69,230.38ZM107.54,356a31.88,31.88,0,0,1,.29,13.05,1.61,1.61,0,0,0,.77-1,35,35,0,0,0,1.69-15.29,27.37,27.37,0,0,0-7.09-14.41c-3.23,7.35-4.86,20.86,3.36,30.34a1,1,0,0,0,1.13.42l-.13,0a35.68,35.68,0,0,0-.49-12.87c-.85-4.21-2.51-8.06-3.07-12.36C104.89,348.08,106.61,351.8,107.54,356Zm22.75-88.9c0,2.46-2.77,2.56-2.77,0,0-2.31-3.59,3-3.59,3h9.8S130.29,264.7,130.29,267.12Zm-20.18-70.93c.3-8.18,6.08-14.65,10-21.4-2.52,5.42-6.72,10.13-8.51,15.89-.73,1.79-.83,4-1.39,5.57a1.39,1.39,0,0,0,1.23-.35c9.06-6.8,12.56-17.5,10.82-25.77,0,0-7.18,4.73-10.62,12.18a25.75,25.75,0,0,0-2.08,13A1,1,0,0,0,110.11,196.19ZM91,333.13a1.15,1.15,0,0,0,1-.62,29.71,29.71,0,0,0,4.35-14.34c.22-9.27-4.7-17.54-4.7-17.54a29.77,29.77,0,0,0-5.49,16.05,35.92,35.92,0,0,0,3.65,15.51,1.53,1.53,0,0,0,1.08.94c.23-1.91,1.21-4.18,1.35-6.37,1-6.73-.87-13.58-.73-20.33C92.08,315.25,94.69,324.66,91,333.13ZM342.79,391.7c1.17-1.63,2.27-3.71,1-5.54-.46-.65-.92.32-1.42.2a13.2,13.2,0,0,1,0-2.46c-.61-8.39-3.74-6.2-5.31-.15-.26.76-.56.7-.77.22-1.58-2.46-1.75,3-1.83,3.94-.14,1.25.12,3-.78,1.89-.88-.89-1.73.52-1.71,1.54a7.12,7.12,0,0,0,0,1.63c.07.54.66,1.4.59,1.73s-1.1-1-1.49-.52c-.56.48-.53,1.88-.4,2.7s.94,1.93.86,2.26-.31.11-.61.28-.5,1.44-.68,1.9c-.59,1-1.22,1.17-1.07,2.56.12.56.49.5.49.5a30.62,30.62,0,0,0,8.21-14.9c0,.21-.09.59-.15.87-1,5.38-4.1,10.29-7.42,14.55-.11.16.44.06.68,0,1.63-.52,5.38-3.06,5.44-3.64.14-.91-.76-.17-.64-.77.06-.31,1.37-.29,2.78-.72a4.23,4.23,0,0,0,3.16-3.09c.13-.85-.22-1.09-.63-1.23s-.9-.15-1.06-.44C340.38,394.1,342,392.87,342.79,391.7ZM316,329.83c-.49,0-1.58,0-2.07.05v.18c.48-.05,1.57-.06,2.06-.05ZM165.51,423.3c-8.6-2.3-16.78,1.08-16.78,1.08s5.75,7.11,14.35,9.41a28.51,28.51,0,0,0,14.79-.41c3.19-1.4-4.26-.22-5.39-.81-6.63-.7-12.24-4.54-18.38-6.75,4.23,1.05,8.06,3.3,12.17,4.67,4,1.61,8.6,1.82,12.59,1.95a1.43,1.43,0,0,0-.46-1.32A30.14,30.14,0,0,0,165.51,423.3ZM365,383.81a6.52,6.52,0,0,0-3,0c-1.06.17-1.93.63-2,.37-.15-.73.57-1.61,0-2.24-2.56-2.17-4.66,3.18-5.76,4.77-.44.74-.75,1.21-.86,1.09-.45-.49,0-2.68-1.33-2.41-2.59,1-2.38,5.47-3.58,7.38-.47,0,.29-1-.41-1.08-.09,0-.27.12-.5.36-1.27,1.64-3.46,3.43-4.3,5.3a67.83,67.83,0,0,0,9.73-3.89,43.67,43.67,0,0,1,4.63-2.11c-4.29,2-8.46,4.72-13,6.32-.5.24-1,.27-1.34.66a.77.77,0,0,0,.05.81,1.3,1.3,0,0,0,1,.58c.18,0,.79-.37,1.17-.33s1.33.45,1.61.16c.86-1.76.78.68,1.52,1.65,1.05,1.4,2.54,1.36,2.49-.71,0-2.3.51-.14,1,.61,1.58,1.74,3.53.37,3.36-1.73,0-.5-.14-.86.08-1.07s.93,0,1.83.06a4.71,4.71,0,0,0,3.71-.88,3,3,0,0,0,.91-2.74c-.31-.8-1-1.16.05-2a20,20,0,0,0,2.55-2.21C366.54,388.94,367.84,384.68,365,383.81Zm15.8-29.46c-1,.34-1.74.93-1.83.67-.27-.75.24-1.79-.45-2.37a1.46,1.46,0,0,0-2.17.11c-1.3.95-2.7,7.2-3.16,7.06-.64-.94-.76-3.77-2.45-1.76-1.37,2-.7,5.63-1.33,7.6-.46,0,.09-1.06-.6-1.06-.43.13-1.33,2.29-1.79,3.07-.51,1-1.7,3-1.58,3.73a107.59,107.59,0,0,0,9.63-6.57A22.34,22.34,0,0,1,378,363a52,52,0,0,0-5.2,4c-2.15,1.81-4.64,3.58-6.85,5.13-.17.33-.38.45.07,1.11,1.09.95,1.32,0,2.15-.17.37,0,1.37.21,1.56-.14s.09-.75.36-.75.9,1.65,1.47,2.18,1.6,1.17,2.14.42c.47-.54-.27-2.34,0-2.67.27,0,.81,1.25,1.2,1.56s2,1.31,2.72-.32c.66-1.27-.29-2.27-.07-3.09,1-.48,3.23.19,4.58-1a2.66,2.66,0,0,0,.49-3.74c-.63-.46-.27-1.4.4-2a15.85,15.85,0,0,0,1.73-2.36C387.08,357.28,385.83,352.38,380.84,354.35Zm18.35-61.67c1.65-3.35,1.66-12.27-3.68-6.86-.74.75-1.23,1.66-1.35,1.45-.38-.65-.16-1.85-.79-2-.83-.26-1.37.23-1.74,1.08-.86,1.41-.85,8.12-1.23,8.21-.52-.21-1-2.48-1.84-1.48a3.51,3.51,0,0,0-.66,2.18c-.18,2,.73,4.81.69,6.66-.35.26-.16-1.06-.71-.71A28.9,28.9,0,0,0,387,306c-.21,1-.52,3.28-.25,3.41,2.84-4.54,5-9.67,8.07-14.06a87.6,87.6,0,0,0-4.56,8.7c-.95,1.95-2.09,4.06-3,5.89,0,.36-.22.6.31,1,1.08.32,1.06-.7,1.66-1.31.28-.22,1.12-.51,1.19-.95-.14-2,.77,0,1.76.39.57.2,1.53.27,1.78-.72.27-.59-.72-2.08-.63-2.47.21-.16.92.74,1.3.83,1.77.45,2.68-1.86,1.7-3.55-.22-.39-.45-.62-.37-.94.73-.95,2.76-1.56,3.42-3.17.75-1.4.61-3-.37-3.59C398.07,295.06,398.82,293.72,399.19,292.68Zm-5.57,30.14c-.93.44-1.66,1.13-1.73.87-.23-.79.29-1.88-.31-2.34a1.34,1.34,0,0,0-2,.34c-1.49,1.61-2.14,5.79-3.25,7.42-.47-.42-.38-2.8-1.5-2.21-2.28,1.66-1.45,6.27-2.18,8.47-.42.1.1-1.08-.54-1-1,1.25-1.66,3.43-2.49,4.93-.31.7-.88,1.82-.75,2.34,4-3,7.52-6.85,11.6-9.75-3.25,2.55-7.53,7.38-11.29,10.46.07.1-.43.48.09,1.13,1,.81,1.23-.19,2-.49.35-.08,1.27,0,1.46-.35s.08-.78.34-.81.82,1.53,1.33,2,1.48.95,2,.12-.24-2.61,0-2.65.73,1.13,1.08,1.38a2.21,2.21,0,0,0,1.15.4A1.37,1.37,0,0,0,390,342c.65-1.73-.33-2.51,0-3s2.61,0,4.27-1.55a2.75,2.75,0,0,0,.54-3.67c-.36-.31-.43-.87.1-1.58a20.81,20.81,0,0,0,2-2.92C399,325.81,398.79,320.17,393.62,322.82ZM316.88,427.47a8.86,8.86,0,0,0-3.19-1.08c-1.2-.22-2.31-.14-2.26-.37.12-.68,1.25-1.18.85-1.94a2,2,0,0,0-2.29-.94c-1.7,0-6.66,3.75-7.1,3.43-.23-.64,1-2.26-.43-2.51-2.56-.5-4.73,3.46-6.51,4.59-.24-.12-.07-.28.07-.47s.25-.4-.1-.57a5.12,5.12,0,0,0-2,.61l.39-.32c-1.15.87-3,1.82-3.33,3.31,4.23-1.7,8.47-.77,13-.87.67,0,1.23.09,1.81.17a70.17,70.17,0,0,0-7.39.07,15.57,15.57,0,0,0-5.9.77c-.45.18-1,.28-1.22.65-.28.67,1.08,1,1.44.91.18,0,.67-.33,1-.31s1.4.34,1.6.17.09-.44.36-.37.35.34.61.68c.58.87,2.07,1.9,2.92,1.76.36-.06-.32-1.28-.1-1.27a7.48,7.48,0,0,0,2.95,2.34,8.06,8.06,0,0,0,4.54,1.62c1.38.1,2.94-1.07,2.54-2.32-.21-.46,0-.91,1-1.09,2.48-.43,6.32-1.32,7.57-3.92A2,2,0,0,0,316.88,427.47ZM200.22,443.13a41.9,41.9,0,0,0,20.71.29,1.69,1.69,0,0,0-.8-1.38c-2.87-2-8.69-5.28-15.43-5.59-9.63-.44-17.52,5.43-17.52,5.43s7.73,6.58,17.36,7c6.75.31,12.64-2.49,15.56-4.18a1.57,1.57,0,0,0,.8-1.12,26.75,26.75,0,0,1-6.69,1.57c-7.19.86-14-2.07-21-3A38.55,38.55,0,0,1,200.22,443.13Zm-5.3-9.77c-2.24-3-4.88-6.57-8.2-8.69-3.1-2.3-6.49-3.67-9.43-6.26,4.77,3.29,10.22,5.08,14.09,9.68,1,.57,4.52,7.39,3.49,3.76-3.85-10.51-12.1-17.53-21.41-16.69,0,0,2.79,9.24,8.91,14.44A19,19,0,0,0,193.94,434,1,1,0,0,0,194.92,433.36Zm29.43-4.16c-5.81-3.47-12.44-1.83-12.44-1.83s2.77,7.27,8.58,10.74a17.59,17.59,0,0,0,10.86,2.08,1.09,1.09,0,0,0,.9-.66l-.09.08c-4-5.7-10.83-7-16.62-10.07,6,2.48,13,3.88,16.75,9.85a1.47,1.47,0,0,0-.12-1.11C231,435.93,228.41,431.63,224.35,429.2Zm66.83.77c.85-1.21-.66-1.63-.87-2.46,0-.35,1.85-.59,3.58-1.43s3.26-2.27,2.79-4.42c-.08-.42-.3-.47-.55-.46-1.45.11-.38-.72.07-2.37,1.69-5.53.42-9.21-4.25-3.17-.51.52-.74.29-.73-.27-.07-1-.71-1.69-1.78-.39-1,1-2.08,3.94-2.81,4.72-.34.15-.29-.76-.81-1.11a26.08,26.08,0,0,0-4.05-.05,2.92,2.92,0,0,0-2.36,3.2,2.65,2.65,0,0,0,.53.9c.71.95.27,1-.8.5a2.33,2.33,0,0,0-1.77-.11,2.2,2.2,0,0,0-.91,2.7c.08.58,1.45,1.49,1.39,2-.15.33-.51.16-1,.37s-.8,1.49-1,1.93-1,1.06-1.09,1.27c-.27.43-.43,1.64.31,1.74.27.06.4-.11.6-.19a37.32,37.32,0,0,1,6.22-5.37c.59-.55,1-.35,1.85-.33a23.3,23.3,0,0,0,6.78-5.9,24.59,24.59,0,0,1-6.92,6.48l-1.19-.05a35.64,35.64,0,0,0-6.2,5.69c-.13.11.21,0,.32,0,1.73-.41,3.81-1.51,5.64-1.92a4.48,4.48,0,0,0,2.37-.42c.48-.7-.6-.54-.3-1.05.24-.2,1.3.41,1.8.55C287.7,431.2,290.07,431.69,291.18,430ZM280,440.88a10.65,10.65,0,0,0-3.59-1.49c-1.36-.36-2.64-.38-2.57-.64a2.93,2.93,0,0,1,.8-1c1.25-1.31-1.1-2.57-2.27-2.3-1.94-.14-7.85,3.5-8.35,3.1-.22-.76,1.27-2.41-.34-2.81-2.88-.81-5.61,3.33-7.74,4.43-.27-.14-.07-.31.1-.51.68-1.11-1.09-.57-2.43-.15,1.07-.7-.41.18-.87.43-.89.63-2.61,1.53-2.62,2.57,5-1.45,9.72,0,14.85.3.77.1,1.4.22,2.06.36-2.74-.44-5.67-.46-8.47-.63a17.54,17.54,0,0,0-8.07.65c.13,0-.63.3.05.94,1.24.82,1.48.22,2.58.2.43,0,1.59.5,1.82.34s.14-.48.44-.38c.43.28,1.07,1.56,1.59,1.91.72.58,2.89,2.07,2.34.34-.1-.35-.21-.7-.07-.63a8.73,8.73,0,0,0,3.23,2.87c1.27,1.15,5.7,3.58,7.81,1.32,1.08-1.23-.69-2.24,1.52-2.52,2.82-.25,7.27-.8,8.92-3.59A2.23,2.23,0,0,0,280,440.88Zm-27-2.37c.8-1-.5-1.52-.61-2.25,0-.31,1.61-.27,3.15-.78a4.59,4.59,0,0,0,2-1.2c.49-.4,1.19-2.49.18-2.75-1.24-.08-.31-.65.18-2,1.7-4.35,1-8-3.47-3.29-.46.38-.64.16-.61-.33-.23-2.74-2.64.65-3.17,1.7-.46.77-.81,1.42-1,1.47s-.21-.7-.64-1.07l-2.4-.47a2.43,2.43,0,0,0-3.27,2.38c0,.37.81,1.22.64,1.56-.44.11-1.79-1.08-2.46-.7a1.82,1.82,0,0,0-.93,2.23c0,.51,1.17,1.48,1.09,1.91-.16.27-.45.08-.87.2s-.76,1.2-1,1.55c-.63.8-1.53,1-1.21,2.16.59,1,1.33-.23,1.91-.6a29.5,29.5,0,0,1,5.12-3.27l1.1.21a19.29,19.29,0,0,0,5.68-3.73c.16-.15.35-.39.46-.51a16.29,16.29,0,0,1-4.4,3.68c-.62.38-1.24.71-1.9,1.05l-1-.2a27.84,27.84,0,0,0-5.68,4.18c1.63.06,3.56-.82,5.27-.92.85.19,2.76.24,2-.61-.15-.12-.31-.22-.15-.4C248.54,438.05,251.22,440.51,253,438.51ZM104.12,212c7.32-2.62,11.32-10,16.65-15.14-4,4.25-7,9.83-11.87,13.09-.75,1-6.54,2.57-3.8,2.73,11.55-.87,17.63-12.91,19.28-19.15a19.61,19.61,0,0,0-12.74,5.09c-4,3.73-6.44,9.18-7.51,12.11a1.82,1.82,0,0,0,0,1.42Zm52.8,57.12h1.22l.73.66.1-.14-.77-.7h-1.28Zm0-3.09h1.22l.73.66.1-.14-.77-.7h-1.28Zm0,1.55h1.22l.73.66.1-.14-.77-.71h-1.28Zm0,3.09h1.23l.79.58.08-.15-.83-.61h-1.27Zm0,4.65h1.23l.73.55.08-.15-.77-.58h-1.27Zm0-3.1h1.23l.79.59.08-.16-.83-.61h-1.27Zm0,1.55h1.23l.73.51.08-.15-.77-.54h-1.27Zm-13.08,11h2.1v-5.65h-2.1ZM159,263.46l-.77-.71h-1.28v.18h1.22l.73.67Zm-2.05,13.41h1.23l.73.54.08-.15-.77-.57h-1.27Zm-10.52,7.91h2.1v-5.65h-2.1ZM145.94,273h-2.1v5.65h2.1Zm2.56,0h-2.1v5.65h2.1Zm8.42-8.55h1.22l.73.67.1-.15-.77-.7h-1.28Zm-9.29,2.64c0,2.46-2.77,2.56-2.77,0,0-2.31-3.59,3-3.59,3h9.8S147.63,264.7,147.63,267.12Zm14.58,18.19v-9.42l-1.27-1v9.58Zm4,2.65v-8.91l-1.15-.91v9.06ZM166,274.38c0,1.88-.68,1.39-.68-.61,0-1.78-.88,1.6-.88,1.6l2.41,2S166,272.55,166,274.38Zm.58,15.86c.09-3.87-.2-7.81.17-11.63l.1-.75-2.39-1.95c-.07,1.42,1,1.52,2,2.52C166.56,278.49,166.31,290.29,166.57,290.24Zm3.11-12.71c0,1.78-.57,1.37-.57-.52,0-1.68-.75,1.59-.75,1.59.82.67,1.24,1,2.06,1.68C170.42,280.28,169.68,275.78,169.68,277.53ZM162,271c0,2-.75,1.44-.75-.67,0-1.88-1,1.65-1,1.65l2.67,2.19S162,269,162,271Zm6.41,8.16c-.07,1.32.85,1.37,1.73,2.23,0,4.29,0,6.91.08,11.19.21-3.64,0-6.12,0-10a9.1,9.1,0,0,0,.22-1.73Zm.54,10.65,1,.67-.05-8.48-1-.77C168.91,284.61,168.92,286.33,168.92,289.76Zm-12-8.24h1.23l.79.53.08-.15-.83-.57h-1.27Zm0-3.1h1.23l.79.56.08-.15-.83-.59h-1.27Zm0,4.65h1.23l.79.52.08-.16-.83-.55h-1.27Zm0-3.1h1.23l.73.51.08-.15-.77-.54h-1.27Zm5.68,7.76V276.54c.07-.21.11-.31.19-.51a6.24,6.24,0,0,1,.11-1.37l-2.65-2.16c-.06,1.52,1.06,1.62,2.24,2.74v12.43Zm-6.14-34.31,15.11,16.29-2.31-4.91v-3.46l.52.25-1-2.19-1.11.86,1-.15.3.76c0,1.12,0,3.89,0,5l-1.58-1.93v-3.13l-.46-1h.58l1.42-1.35L170.7,262l-1.59-4.12h-1.38l-.36.44-1.59-4.11H164.4l-.08.1-1.93-4.11.19-.18,1.79,3.54-1.6-4.12H162l-8.78-18.7L146,221.46Zm9.13,1.33,1.78,3.53-.74.9-.71-1.52.54.26-1-2.18-.33.26-.27-.56Zm-.84,1.79.58-.09.45,1.15c.09,0,0,5,0,5l-1.06-1.47ZM162,251.73l.14,0,1.33,3.07v5.31l-1.47-1.8Zm-5.06,32.88h1.23l.79.51L159,285l-.83-.53h-1.27Zm0,1.55h1.23l.79.49.08-.16-.81-.5h-1.29ZM340.71,412.65a8.08,8.08,0,0,0-2.91-.93c-1.07-.17-2-.07-2-.29,0-.66.95-1.16.5-1.85-1.29-1.77-3.12-.52-4.58.43-2.33,1.48-3.75,3.58-3.23.87,0-.5-.08-.94-.72-1.05-2.3-.4-3.68,3.39-5.08,4.49-.22-.1-.09-.26,0-.44s.16-.39-.16-.54c0-.3-2.41,1.15-1.38.32-.91.84-2.39,1.87-2.47,3.2,3-1.56,6.1-1,9.36-1.16a25,25,0,0,1,3.37.1c-2.37-.12-4.83.21-7.22.32-1.58,0-4.4.49-5.19,1.48,0,0-.1.3.29.58a1.7,1.7,0,0,0,1.07.24c.16,0,.55-.33.88-.32s1.26.28,1.41.12,0-.42.26-.37,1.85,2.38,3.38,2.21c.29-.07-.45-1.2-.25-1.2a7.78,7.78,0,0,0,2.85,2.12c1.07.82,4.75,2.53,6,.39.62-1.1-.88-1.82.74-2.28a11.27,11.27,0,0,0,5-2.16C342,415.84,342.38,413.56,340.71,412.65Zm-14.3-102V305h-2.1v5.64Zm-30.13,14.19-1.12-1.36h-1l-1.11,2.89,1.25-2.49,1,1Zm-4.68-16.73h-.92l-1.05,2.73,1.18-2.35.94.9h.9Zm-4.88,4.18.45-.22.3-.76.64.1-.73-.57Zm2.42,13.79-1-1.19h-.85l-1,2.53,1.09-2.17.87.83Zm-1.82.91.28-.7.59.09-.68-.53-.6,1.34Zm-.49-5.2c.24-.1.41.05.5.46.25,1.31,1,.84,1.18-.29.09-.46.23-.69.5-.73V321l-2.18.57ZM289,311.68l-2.18,1v8.19l2.18-.59Zm1.31,9.22c.65-.26.46,1.56,1.09,1.37.58,0,.48-1.87,1.1-1.92v-.26l-2.19.56Zm4-.34c.24,1.49,1,1,1.18-.29.07-.45.24-.74.41-.79s.07-.16.09-.3l-2.18.56V320C294.07,319.91,294.23,320.09,294.32,320.56Zm-3.64,5.88.3-.76.64.1-.73-.57-.66,1.45Zm3.51-.55.32-.81.68.11-.78-.6-.69,1.53Zm.25-18,.63.1-.73-.57-.65,1.45.44-.22Zm1.56.78-2.18.95v9.33l2.18-.6Zm-3.35,16.82-1-1.29h-.92l-1.05,2.74,1.18-2.35.94.9Zm2.4-19.11h-.92l-1.05,2.74,1.18-2.35.95.9h.89Zm-4.82,4.25.45-.21.3-.76.64.1-.73-.58Zm-9.67,4.48.34-.17.23-.57.48.08-.56-.43Zm.07,8.29c.41-.17.31,1.33.7,1.17.35,0,.29-1.49.69-1.52v-.21l-1.39.36Zm.19,4.44.22-.57.48.07-.55-.43-.49,1.09Zm7.27-18h-.92l-1.05,2.74,1.18-2.35.94.9h.9Zm40.83-5.65c-.06-3.67-4.59-3.65-4.63,0C324.29,304.16,329,304.21,328.92,304.16Zm-47.33,9h-.69l-.8,2.05.9-1.76.71.67h.67Zm42.33,29.67c.16.33.07-14.77.09-15,0-3.5-.94-6.2-2.11-6s-2.11,3-2.11,6.35c0,5.92-.07,10.07.13,16l4,.45ZM282,314.73l-1.39.6v7.2l1.39-.38Zm3.5,7.17-2.19.56c0,.14-.06.27.1.2.52-.09.39,1.36,1,1.19.53,0,.53-1.56,1-1.7C285.58,322.15,285.5,322,285.52,321.9Zm-1.74,5.58.26-.67.56.09-.64-.5-.57,1.27Zm1.73-.86-.93-1.13h-.8l-.93,2.4,1-2.06.83.79Zm0-13.41-2.19,1v7.63l2.19-.6Zm-3.22,13.86-.8-1h-.68l-.8,2.06.89-1.77.71.68Zm2.4-15.49h-.8L283,314l1-2.07.82.79h.79Zm0,1.42-.65-.5-.57,1.27.39-.19.27-.67Zm7.78-2.84-2.19.95v8.77l2.19-.6Zm16.62,12.46L307.79,321h-1.15l-1.34,3.46,1.5-3,1.19,1.14Zm-10.25-18.25h-1.06l-1.22,3.17,1.37-2.72,1.09,1h1Zm7.76,19.49.38-1,.8.13-.92-.73-.83,1.84Zm3.95-.33.44-1.11.92.15-1.07-.83-.94,2.1Zm-3.84-6c.27,1.8,1.14,1.25,1.3-.32.08-.54.26-.9.45-1s.08-.16.11-.36l-2.41.62v.33C306.49,316.75,306.65,317,306.75,317.54Zm1.86-14.39-2.41,1.05v11.33l2.41-.66Zm-1.7-1,.75.12-.86-.68-.78,1.72.53-.26Zm9,37H314.7l-.81,0v.18l.82,0H316Zm0,3.28v-.18a14,14,0,0,1-2.05-.09l0,.18A14.28,14.28,0,0,0,316,342.4Zm0-15.67a15.79,15.79,0,0,0-2.07.08V327a15.7,15.7,0,0,1,2.06-.08Zm0,9.3-1.28,0-.78,0v.19c.47,0,1.58,0,2.06,0Zm0-7.75a20.36,20.36,0,0,0-2.07.06v.19a17.65,17.65,0,0,1,2.06-.07Zm0,9.29c-.49,0-1.58,0-2.06,0v.18l.81,0H316Zm-8.32-37.23h-1.08l-1.25,3.24,1.41-2.78,1.11,1.06h1.07ZM316,340.67H314.7l-.81-.06v.18l.82.06H316Zm-2.51-18.57-1.53-1.86h-1.32l-1.53,4,1.72-3.41,1.36,1.31Zm-13.31,2.14L299,322.81h-1l-1.18,3.06,1.32-2.63,1.06,1Zm-2.2,1.11.34-.85.71.11-.82-.64-.73,1.62Zm4.42-20.47.49-.23.32-.82.69.1-.79-.61Zm1.47-2.68h-1l-1.14,2.95,1.28-2.53,1,1h1Zm-3.72,4.65-2.79,1.22V318l2.79-.76Zm-1.93-.73.74.12-.85-.66-.76,1.67.52-.25ZM298,319.68c.32,1.58,1.33,1,1.52-.37.11-.56.3-.85.63-.9v-.3l-2.79.73v.28C297.62,319,297.84,319.17,298,319.68ZM312,300.14l-1.06-.82-.95,2.09.65-.31.44-1.1Zm0-2.33h-1.32l-1.53,4,1.72-3.4,1.36,1.3h1.3Zm-2.05,18.1c.33-.13.52.11.63.7.12.77.41,1.27.75,1.19.77-.06.57-2.51,1.38-2.59v-.36l-2.76.72Zm-7.45,1.9c.29-.11.45.1.55.64.27,1.7,1.15,1.15,1.31-.32.1-.59.24-.89.55-.93v-.33l-2.41.63Zm7.45-3.3,2.76-.75V301.38l-2.76,1.2Zm-5,8.94-1.35-1.65h-1.17l-1.35,3.5,1.51-3,1.21,1.15Zm-.08-18.68-2.41,1.05v10.73l2.41-.66Zm-2.44,19.94.39-1,.81.13-.94-.73-.83,1.85Zm-2.29-49.09v-1l14.55-13,40.49,0,3.43-2.3-3.64.62-40.28.05L299,274.59h.75v.2l-1.26,0L314.7,259c2,0,44.38-.18,44.83-.14l-9.19-6.95L344,243.75h-5.47l2.76-2,3.88,2.82-3.88-3.5-3,2.69h-1L341,240l-13.3-18.51-11,32.75-4,5L296.67,275.1C297.5,275.24,299.31,275.49,300.15,275.62Zm37.21-24.88,1.5-3.59c0-.81-.24-2.58,1-2.59h2.83c1.2,0,1,1.78,1,2.59l1.53,3.59c.28,1-.51.95-1.18.93-1,.13-1.66,1.08-2.88,1-1.22.13-1.85-.82-2.87-1C337.62,251.76,337.11,251.44,337.36,250.74Zm-6.6.93a2.35,2.35,0,0,0-1.62.33,3.49,3.49,0,0,1-4,0,1.78,1.78,0,0,0-1.28-.33.63.63,0,0,1-.46-.93l1.5-3.59v-1.44a1.07,1.07,0,0,1,1-1.15h2.83a1.07,1.07,0,0,1,1,1.15v1.44l1.53,3.59A.63.63,0,0,1,330.76,251.67Zm-6.21-7.92,2.77-2,2.76,2Zm2.61-4,4,4h-.86l-3-2.69-3,2.69h-1.16ZM264.3,206.91s-1.1-.9-1.3-.86-.64.32-.6,1.46a11,11,0,0,0,.2,1.88S262.77,207.4,264.3,206.91Zm-28.7-40.1c4.64,1.23,7,3.7,12.13,7.23-.34-.45,6.81,6.3,6.78,6.26,1.61,1.48-.34.95-2.76,1.26a11.27,11.27,0,0,1-1.58-.07,2.81,2.81,0,0,1,1.05,2,6.49,6.49,0,0,0-2.07-1.18,3.8,3.8,0,0,1,.83,3.28c0,.24-.53,1.58-.35,1.36a3.46,3.46,0,0,0,.4,1.73,5.47,5.47,0,0,1,.55-2c4.81-.25,7.33-5.37,7.33-5.37a24.52,24.52,0,0,0-4-3.27l2.1-1.92a.36.36,0,0,0-.17-.61c-1.63-.29-6.07-1.67-14.67-8a9,9,0,0,0-5.47-1.77,9.69,9.69,0,0,0-3.23.54ZM266,177.69l-.73,7.19c0,.28.47.22.48.21s.14,19.06.19,19.08l.92-.23s-.32-16.44.35-17.81a3.41,3.41,0,0,1,2.15,1.88l-.14-2.63v-.33c.2,0,.68.2.63-.19l-1.4-7.28a4.32,4.32,0,0,1,1.21-2.3,5,5,0,0,1,2-1.17,78.26,78.26,0,0,0-4-26.6l-.5-1a44.33,44.33,0,0,0-2.16,7.17A80.26,80.26,0,0,0,262.8,174,4.57,4.57,0,0,1,266,177.69Zm0-23.81c.4-1.67.78-3.09,1.14-4.28l.19,26.34c.07,2,0,4.88,0,6.9-.05-.58,0,1.23,0,1.18-.29-.06-1,.33-1.08-.16l.44-5.16c0-.08.08-2.64-.52-3.32a5.11,5.11,0,0,0-2.37-2.06A80.3,80.3,0,0,1,266,153.88Zm-17.47,48.33c.09,0,.18.13.24.07.8-.7.57-2-.66-1.63-1,.48-1.9,1.65-3.28,1.28a1.52,1.52,0,0,0,.48.56A9.52,9.52,0,0,1,248.53,202.21Zm.05-20.93c-1-.29-2.05-1.29-3-1.1-1.41,1-2.06,2.77-5.91,2.44,0,0,2.22.92,6.2-.52A23.53,23.53,0,0,1,248.58,181.28Zm-1.48,22.34c.66.08.81-.29,1.15-.44-.73-.45-2.8.1-2.8.1Zm4.55-7a21,21,0,0,1-4.47-7.7,5.17,5.17,0,0,0-1,1l.66-1.61c-4.17-1.24-4.13-1.07-7.18.49a19.64,19.64,0,0,1,3.34-.32c.56.13,1.19.38.2.3-1.46-.11-2.63,1.17-4,.87-.17,0-.51-.26-.21.08a2.58,2.58,0,0,0,3,.64.74.74,0,0,0,.87,1,1.36,1.36,0,0,0,1.08-1,1.2,1.2,0,0,1,0,1c-.07.16,0,.08.24,0-.1.79.46,1.29,1.63,1.83,1.74,1,2.19,1.74,1.34,2.18-1.31.56-1.45,1.34-.44,2.36a1.94,1.94,0,0,1,2.58,1.11A4.14,4.14,0,0,0,251.65,196.59Zm52.29,93.17c0-3.43,0-5.15,0-8.58l-1,.77-.05,8.48ZM303.76,277c0,1.89-.59,2.3-.58.52s-.73,2.75-.73,2.75l2.05-1.68S303.76,275.33,303.76,277Zm-33.49-71.28a8.35,8.35,0,0,0-1.9-1,12.93,12.93,0,0,0-1.87,0,3.4,3.4,0,0,1-2.32-.42c-.07,0-.17,0-.22,0-.27.39,0,.83.28,1.13a2.67,2.67,0,0,0,2.25,1c1.05,0,2.09-.51,2.89.11.55.5,1.51,1.38,1.69,1.62a3.11,3.11,0,0,1,.3,1.26s.88-.51.34-2.46C271.46,206.47,270.75,206.08,270.27,205.73Zm34.22,73.38c-1.21,1.15-2.29,1.3-2,2.38.3,4.22,0,6.85.07,11.09l.08-.05c0-4.27,0-6.91.07-11.19C303.64,280.48,304.56,280.43,304.49,279.11ZM199.22,172.4c-1.4,1.26-.31,3.48-.23,5.11a21.46,21.46,0,0,1,9-7.4s-5.33,2.67-7.69,7.19a9,9,0,0,0-.76,1.87l0-.06a17.67,17.67,0,0,1,6.73-5.71,14.59,14.59,0,0,0-5.1,8.25,29,29,0,0,0,2.42,4.6c.55.75,1.29,1.73,1.93,2.54l1.47-1.09c-.62-12.29,1-17.49,7.59-17.5-5.75,7.26-7.74,14.17-1.89,22.43,1.3,1.69,2.54,3.53,2.67,5.69a10.83,10.83,0,0,1-3.21,7.53,16.5,16.5,0,0,0,5.22-4.34,6.34,6.34,0,0,1-1.87,4.86,10.23,10.23,0,0,1-1.73,1.46A8.31,8.31,0,0,0,210,214.6c-.06.63,0,1.35,0,2.14,0,2.93-3.56,4-3.56,4l-.75.21a13.7,13.7,0,0,0,3.21-.6c2.68-.91,3.26-2.26,3.67-3.23,0,0,0,.14,0,.37.08,3.31,2.33,11.68,7.55,12.43-1.86-2.49-3.6-8.71-.66-11.88,2.05-2.43,5.19-4,6.41-7.12,1.38,1.72,2.64,2.85,6.22,3.79a12.31,12.31,0,0,1-3.53-5.31,16.33,16.33,0,0,1-.84-4.53,10.26,10.26,0,0,0,.57-3.51,10.9,10.9,0,0,1,2.45-6.31,13.84,13.84,0,0,0-.93,6l.87-1.38a15.77,15.77,0,0,0,.25,3.44,6,6,0,0,0,2.65,3.53,8.87,8.87,0,0,0,1.55.83c0,.06,0,.81,0,1.06a20,20,0,0,0,1.47,5.94l.19-1c-.06-3.24.55-4.61,1-5.18,1.07-.14,2.77.93,3.85,1,3.74.66,4.74.54,6.22-.58a5.74,5.74,0,0,1-1.63.28c-6.06.1-14.13-6.63-10.67-12.32.62-1.19,1.15-2.39.78-3.54a7.51,7.51,0,0,1-.3-2.32c.07-1.73.18-3.45,1.35-4.68a5.9,5.9,0,0,1,2.33-1.48,6.84,6.84,0,0,0-3.12,1.07c-1.69,1.2-2.31,3.79-4.12,4.72a10.74,10.74,0,0,1-6.08,1.59c.19,0,.58-.11,1.07-.25a8.19,8.19,0,0,0,5.06-3.54c2.67-4.23,3.63-5.37,5.67-6.61a10.35,10.35,0,0,1,3.53-1.37,7.59,7.59,0,0,1,2.17-.14,2.81,2.81,0,0,1,.72-.49,19.94,19.94,0,0,0-3.82-.79c-6.74-.21-10.26,1.6-17.06,6.75a36,36,0,0,1,12.36-4.86c-8.74,2.89-12.31,5.46-15.51,9.85a28.18,28.18,0,0,0-3.17,6.53c-1.46-14.8,17.49-19.52,19.42-20.58.83-.65-.48-1-2.93-1.77s-11.47-2.12-7.47-5.6a14.94,14.94,0,0,1,3.37-2,14.67,14.67,0,0,0-12,7.62,6.59,6.59,0,0,1-.14-5.34c1-1.11,3.93-3.7,11-5.19-.2,0-6.07.32-9.93,2.81,2.58-3.43,8.2-4.11,9.1-4.22-.53-3.59-2.23-9.79,6.21-14.88l-.95-3.87c-9.94,5.36-9.46,12.35-8.26,16.09a24.69,24.69,0,0,1-3.49-7.68c-.89,3.09,1.94,7.75,1.94,7.75-5-3.34-8-8.8-6.41-13.89a32.35,32.35,0,0,1,5.88-1.86,7.59,7.59,0,0,0,.05,4.31,4.37,4.37,0,0,1,2.51-4.78c1.06-.15,2.15-.26,3.28-.33a31.69,31.69,0,0,0-15.24,3.49,8.13,8.13,0,0,0,0,1c.17,2.49,1.4,6.56,6.49,11.45,0,0-6.16-3.87-8.72-10-.31-1.92-2,.55-2.93,1.06.18.3.37.58.58.88a40.42,40.42,0,0,0,9.09,8.89,34.5,34.5,0,0,1-10.17-7.77c-.91-1.86-2,.75-2.89,1.54a21.32,21.32,0,0,0,9.3,7.55,26.29,26.29,0,0,1-9.5-5.37c-1.37-1.87-2.2,1.87-3,2.9,2.27.86,5.16,1.92,7.43,2.53-2.32-.44-5.57-1.11-8-1.31-.34,1.35-2.91,5.53-.34,4.39,4.53-1.24,12.63-.65,12.18-.57a39.56,39.56,0,0,0-12.5,1.81c-2.23.23-1.43,3.24-1.79,4.9,2.51-1.45,6.07-3.34,8.58-3.64C207.24,167.28,201.7,169.61,199.22,172.4Zm27.29,16.31a8.38,8.38,0,0,1,.85-.4,12.12,12.12,0,0,0,4.09-2.78,6.09,6.09,0,0,1-3.68,4c-1,.44-1.79.79-2.37,1.1a8.58,8.58,0,0,0-2.38,1.82A7,7,0,0,1,226.51,188.71Zm-5.16,13.13a12,12,0,0,1,7.06-7.58,20.59,20.59,0,0,0-4.12,7,16.54,16.54,0,0,1-1.06,2.75,15.23,15.23,0,0,1-6.5,6.62S219.28,208.65,221.35,201.84ZM267,209.6c1.2,0,4.05,1.88,4.25,2s.21-.88.18-1-.19-.78-.67-.84a4.23,4.23,0,0,1-1.77-1.21c-.33-.38-.73-.57-.78-.46s-.27.26-1.24.22a3.61,3.61,0,0,0-2.38.71,1.39,1.39,0,0,1-.77.44,3,3,0,0,0-.45,2.51A5.18,5.18,0,0,1,267,209.6Zm-3.72,6.16a7.45,7.45,0,0,0,1.29,2.38,3.37,3.37,0,0,0,1.5,1.58c0,1.07,0,2.61,0,3.68l.06,7.59.71-2c.07-2.08,0-11.17,0-11.45a6.1,6.1,0,0,0,2.43,1.1c.07,0,.17,12.8.17,13.26a53.24,53.24,0,0,0,3.87-3.79,51.47,51.47,0,0,0-1.48-7.85c-.49-1.06-1.36-2.74-1.85-3.52a3,3,0,0,0-1.29-1.1,4.22,4.22,0,0,1-2.45-1.46c-.28-.2-.57.13-1.44.26s-.7-.66-.7-.66c.35.08,1.94-1.28,2.35-1.35a12.94,12.94,0,0,1,2.85.74c.11.08.62-.1.62-.1-.51-.59-3.92-1.91-4.15-2.05s-1.37,1-1.7,1.55a.48.48,0,0,1-.77.14S263,213.33,263.28,215.76Zm24.25,45.88-4.79,7.87-7.86,16.3,5.61-8.1Zm-51.1,22.83v.28a6.7,6.7,0,0,1,3.35.76A6.25,6.25,0,0,0,236.43,284.47Zm-11.09,1.95a1.13,1.13,0,0,1,.85,1.16h.26A1.06,1.06,0,0,0,225.34,286.42Zm5.38-2.15a.42.42,0,1,0-.82,0A.42.42,0,1,0,230.72,284.27Zm76.83-10.5c0,2-.68,2.49-.68.61s-.85,3-.85,3l2.42-2S307.55,272,307.55,273.77Zm-79.57,13h3.58v-.35h-3.85Zm-5.78-68.54a9.61,9.61,0,0,0-1.77,1.8,8.37,8.37,0,0,0,5.3,3.19l.45,0A7.85,7.85,0,0,1,222.2,218.25ZM198,285.81l-7.85-16.3-4.8-7.87,7,16.07Zm96-11.53h-1.51v2.11H294Zm-9.46,2.11H286v-2.11h-1.5Zm-68.73-36.08C238,244.9,243.39,227.07,242.2,221c1.39,7.3,0,19-13.42,23,1.94.06,4.33,1,6.14.11,6.41-3.54,10.77-13.06,9.49-23a31.85,31.85,0,0,1,.73,7.71c-.06,4.77-1.67,8.24-5.75,15.61a49.63,49.63,0,0,0,6.49-.84,36.66,36.66,0,0,0,1.86-19.66c1.95,3.25,4,10.5,1.85,18.77,1.19-.33,2.36-.69,3.51-1.11a22.12,22.12,0,0,0-1-14.1c2,3.68,3,6,3.13,13.29.66-.27,1.31-.55,2-.85,0-.79,0-1.91,0-3.53,0-6.65-2-10.62-4.47-12.21a4.36,4.36,0,0,0-2.25-1.25c-.27-.75-1.88-2.06-3.06-1.44-.88-1.14-3.1-.8-3.1-.79-.64-1.29-4.11-1.7-4.39-1.44,2.11,5,1.69,9.43-5.77,14.88-6.17,4.38-30.3,1.41-38.51-9.71A50.73,50.73,0,0,0,215.78,240.31ZM201,183.54a22.83,22.83,0,0,0,3.86,5.75,24.69,24.69,0,0,1-3.72-6.89C201,182.77,201,183.15,201,183.54Zm45.47,104h.26a1.13,1.13,0,0,1,.85-1.16A1.06,1.06,0,0,0,246.42,287.58Zm-9.58-5.79a.42.42,0,1,0-.82,0A.42.42,0,1,0,236.84,281.79Zm-.41,3v-.28a6.31,6.31,0,0,0-3.35,1A6.75,6.75,0,0,1,236.43,284.75Zm6.54-.48a.42.42,0,1,0-.83,0A.42.42,0,1,0,243,284.27Zm-1.66,2.52h3.58l.27-.35h-3.85ZM316,282.88h-1.27l-.83.55.08.16.79-.52H316ZM184.81,298h2.55l.37-1h-3.3Zm160.54-30.88c0,2.6-2.77,2.5-2.77,0s-3.45,3-3.45,3h9.81S345.35,264.77,345.35,267.08ZM316,284.43H314.7l-.85.53.08.16.79-.51H316ZM328,267.08c0,2.6-2.77,2.5-2.77,0s-3.45,3-3.45,3h9.81S328,264.77,328,267.08Zm-14.16,19.41.07.16.8-.49H316V286H314.7Zm2.1-5.16h-1.27l-.83.57.08.15.79-.53H316ZM329,305h-2.11v5.64H329Zm-3-55.6h2.64v-3.7H326ZM350.42,180c.43.69,1.1,1.56,1.5,2.07s.2.84-.2.91c-.86.28-1.12,1.2-.29,2.19s2.78,1.82,3.36,2.56c0,.58-1,.58-.93,1.75s1.46,1.66,1.83,1.71,1.18-.4,1.36-.23-.16.32-.43.62c-1.2,1-.12,2.08,1,2.15,1,.06,2.24-1.2,1.73.36,0,.37.69.94.9,1.25a6.09,6.09,0,0,1,.36,1.19c.19.47,1.1,1,1.34.23a29.28,29.28,0,0,0-5.88-13.56c-.29-.29.05,0,.16.13,3.33,3.48,5.1,8.32,6.33,12.9.68-1.38.75-6.16.3-7.65-.51-.43-.43.76-.76.45-.08-.08,0-.47.18-1,.5-1.92,1.53-4.79,0-6.44-.94-.83-1.27,1-1.82,1.14-.54-.64-.91-7.94-4.15-6.69-.63.24-.18,1-.45,1.51-.09.15-.77-.42-1.65-.8C350.89,175.13,348.11,176.6,350.42,180ZM344.2,301.38a2.58,2.58,0,0,0-2.31,2.8h4.63A2.59,2.59,0,0,0,344.2,301.38ZM346.29,198c0,1.29,1.42,2.09,2.44,2.59.59.26,1.37.54.78,1.1a1,1,0,0,0,.42,1.78c1.25.61,3.45-.31,3.25.52-.14.38-.47.73-.27,1.17a1.43,1.43,0,0,0,1.84.42c.29-.14.76-.9.95-.84s0,.34-.15.72c-.54,1.27.34,1.8,1.4,1.21.69-.39,1.33-2.05,1.39-.58.1.29.8.36,1.05.48s.52.62.64.69c.65.38,1.24-.07,1-.77-2.11-2.83-4.73-5.72-8.21-6.79l-.13,0a6.67,6.67,0,0,1,1,.27c3.13,1.16,5.6,3.58,7.65,6.12.05-1.34-1-4-1.66-5.39-.13-.22-.24-.36-.31-.37-.5,0-.1.78-.43.72-.49-1.46-.05-4.95-2.06-5.61-.93-.15-.66,1.4-1,1.75-.24.07-.83-1.17-1.14-1.53-.85-1.28-2.55-3.25-3.84-1.62-.4.47.16.9.08,1.42,0,.17-.67,0-1.45.13C348.16,195.75,346.29,196.36,346.29,198Zm-18.67-27.61c-.39.26-1.34-.16-1.32.45.24,3,5.93,3.4,7.84,4.57,0,.49-1.64.56-.63,1.62a3.93,3.93,0,0,0,1.85,1c1.49.53,3.62.13,4.93.51.3.41-.77,0-.35.59,1.27.7,5.5,2.83,6.62,2.91-4.09-4-8.84-7.21-13-11,3.47,3.1,7.5,5.52,11,8.67a22.72,22.72,0,0,0,2.57,2.06.31.31,0,0,0,.41-.26c0-1-.79-1.2-1.39-1.94-.24-.33-.67-1.26-1-1.41s-.53,0-.68-.28.52-.9.53-1.44c.09-.9-.8-2.58-1.92-1.93s-.39-.37-.31-1c0-1.77-2-3.2-3.52-2.56-.27.16-.37.35-.64.2-.53-.29-1.48-2.56-3.39-4-1.17-.85-2.34-1.27-2.67-.23,0,.38-.32.5-1.07,0a19.18,19.18,0,0,0-5-2.53c-3.46-.8-2.47,2.05-.24,4.42C326.92,169.66,327.74,170.32,327.62,170.41Zm14.93,75.31h-2.63v3.7h2.63Zm-41.25,24,15.11-16.29,10.46-32-7.26,9.24-8.78,18.7h-.74l-1.59,4.12,1.79-3.54.19.18-1.94,4.11-.08-.1h-1.37l-1.59,4.11-.36-.44h-1.38L302.17,262l1.78-3.54,1.43,1.35H306l-.47,1v3.13l-1.57,1.93v-1.71c0,.05,0-3.26,0-3.25l.3-.76.95.15-1.1-.86-1,2.19.52-.25v3.46Zm8.12-14.93,1.33-3.07.14,0v6.56l-1.47,1.8Zm-1.3,6.38-1.07,1.47v-5h0l.45-1.15.58.09Zm-2.62-2.88,1.78-3.53.72.69-.27.56-.34-.26-1,2.18.54-.26-.71,1.52ZM316,279.79h-1.27l-.78.54.09.15.73-.51H316Zm0-15.49h-1.28l-.77.7.09.15.74-.67H316Zm0-1.55h-1.28l-.77.71.09.14.74-.67H316Zm0,15.49h-1.27l-.83.59.08.15.79-.56H316Zm0-12.39h-1.28l-.77.7.09.14.74-.66H316ZM307.8,287.2v-9.06c-.45.37-.68.55-1.14.91V288Zm.62-11.29-2.4,1.95a7.06,7.06,0,0,1,.11,1.3c.06.19.1.29.16.49v10.59l.09-.06V278.43C307.43,277.42,308.48,277.34,308.42,275.91Zm3.23-5.63c0,2.11-.76,2.65-.76.67s-.93,3.17-.93,3.17l2.66-2.19S311.65,268.4,311.65,270.28Zm.27,14.19v-9.58l-1.26,1v9.42Zm.68-12c-1.05.87-1.58,1.3-2.64,2.16a6.91,6.91,0,0,1,.11,1.37c.08.2.11.3.19.51v11.19l.1-.06V275.24C311.55,274.11,312.66,274,312.6,272.5Zm3.35,2.64h-1.28l-.77.58.09.15.73-.55H316Zm0,1.55h-1.28l-.77.57.09.15.73-.54H316Zm0-3.1h-1.27l-.77.54.08.15.73-.51H316Zm0-6.2h-1.28l-.77.71.09.14.74-.66H316Zm0,1.55h-1.28l-.77.7.09.14.73-.66H316Zm0,1.55h-1.28l-.82.61.08.15.79-.58H316Zm0,1.55h-1.28l-.82.61.08.16.79-.59H316Z"
     transform="translate(-72.37 -143.69)"
     id="path14"
     style="fill:#ffffff;fill-opacity:1" />
  <path
     class="cls-1"
     d="M209.57,378.1l-4.73,2.38v-3.42l5-2.61H213v19.83h-3.4Z"
     transform="translate(-72.37 -143.69)"
     id="path15"
     style="fill:#ffffff;fill-opacity:1" />
  <path
     class="cls-1"
     d="M232.18,389c0,3.17-2.69,5.67-7.05,5.67-4.62,0-7.17-2.5-7.17-6a5.59,5.59,0,0,1,3.09-4.93,4.77,4.77,0,0,1-2.41-4.28c0-3.2,2.43-5.44,6.37-5.44s6.49,2.38,6.49,5.58a5.47,5.47,0,0,1-2.8,4.51C231,385.24,232.18,386.83,232.18,389Zm-3.43-.11c0-1.14-.65-2.1-2.58-2.9l-2.18-.9c-1.61.65-2.66,1.78-2.66,3.34,0,2,1.47,3.2,3.8,3.2S228.75,390.37,228.75,388.93Zm-6.91-9.38a3,3,0,0,0,2.1,2.58l1.89.76c1.48-.76,2.47-1.81,2.47-3.14,0-1.53-1.08-2.81-3.29-2.81S221.84,378.16,221.84,379.55Z"
     transform="translate(-72.37 -143.69)"
     id="path16"
     style="fill:#ffffff;fill-opacity:1" />
  <path
     class="cls-1"
     d="M249.66,388.19c0,3.51-2.72,6.52-7.14,6.52a13.83,13.83,0,0,1-6-1.45V389.8a12.14,12.14,0,0,0,5.93,1.7,3.34,3.34,0,0,0,3.62-3.31c0-2-1.47-3.35-3.82-3.35a5.37,5.37,0,0,0-3,.91L236.77,384l.42-9.52h11.62v3.17h-8.59l-.25,4.82a6.94,6.94,0,0,1,3.29-.68A6.21,6.21,0,0,1,249.66,388.19Z"
     transform="translate(-72.37 -143.69)"
     id="path17"
     style="fill:#ffffff;fill-opacity:1" />
  <path
     class="cls-1"
     d="M254.1,393.69v-3.38a11.46,11.46,0,0,0,4.82,1.22c3.26,0,4.85-1.78,4.85-6a6.69,6.69,0,0,1-4.57,1.61c-3.62,0-6.26-2.55-6.26-6.54s3.12-6.55,6.92-6.55c4.64,0,7.36,3.57,7.36,9.63,0,8.25-3,11.06-8.3,11.06A12.77,12.77,0,0,1,254.1,393.69Zm9.52-11.25c0-3.46-1.27-5.36-3.79-5.36a3.53,3.53,0,0,0,0,7.06A5.3,5.3,0,0,0,263.62,382.44Z"
     transform="translate(-72.37 -143.69)"
     id="path18"
     style="fill:#ffffff;fill-opacity:1" />
  <polygon
     class="cls-1"
     points="449.32 98.08 449.32 143.3 458.74 143.3 458.74 94.52 458.72 94.52 449.32 98.08"
     id="polygon18"
     style="fill:#ffffff;fill-opacity:1" />
  <path
     class="cls-1"
     d="M538.58,287H548v-32.9h-9.41Zm4.7-39.43a5.79,5.79,0,1,0-5.78-5.79A5.79,5.79,0,0,0,543.28,247.56Z"
     transform="translate(-72.37 -143.69)"
     id="path19"
     style="fill:#ffffff;fill-opacity:1" />
  <path
     class="cls-1"
     d="M688.51,287h9.42v-32.9h-9.42Zm4.71-39.43a5.79,5.79,0,1,0-5.78-5.79A5.78,5.78,0,0,0,693.22,247.56Z"
     transform="translate(-72.37 -143.69)"
     id="path20"
     style="fill:#ffffff;fill-opacity:1" />
  <path
     class="cls-1"
     d="M481.32,348.54h9.42v-32.9h-9.42ZM486,309.11a5.79,5.79,0,1,0-5.78-5.78A5.78,5.78,0,0,0,486,309.11Z"
     transform="translate(-72.37 -143.69)"
     id="path21"
     style="fill:#ffffff;fill-opacity:1" />
  <path
     class="cls-1"
     d="M616.28,348.54h9.42v-32.9h-9.42ZM621,309.11a5.79,5.79,0,1,0-5.78-5.78A5.78,5.78,0,0,0,621,309.11Z"
     transform="translate(-72.37 -143.69)"
     id="path22"
     style="fill:#ffffff;fill-opacity:1" />
  <path
     class="cls-1"
     d="M473.8,299.36l-9.41,3.56V317.7a14.4,14.4,0,0,0-9.77-3.68c-9.13,0-15.37,7.61-15.37,17.43S445.49,349,454.62,349a14.33,14.33,0,0,0,9.77-3.71v2.83h9.42V299.36Zm-17.05,40.77c-4.22,0-7.62-3.23-7.62-8.68s3.4-8.61,7.62-8.61,7.4,3.07,7.64,8V332C464.15,337.11,460.88,340.13,456.75,340.13Z"
     transform="translate(-72.37 -143.69)"
     id="path23"
     style="fill:#ffffff;fill-opacity:1" />
</svg>
